<svg width="1820" height="926" viewBox="0 0 1820 926" fill="none" xmlns="http://www.w3.org/2000/svg">
<g filter="url(#filter0_b_35_401)">
<rect x="0.5" y="0.5" width="1819" height="925" rx="29.5" stroke="#483E2C"/>
</g>
<path d="M670 460.5V435.5C670 427.216 676.716 420.5 685 420.5H1575C1583.28 420.5 1590 427.216 1590 435.5V460" stroke="#272727" stroke-width="2"/>
<path d="M1590 638L1590 663C1590 671.284 1583.28 678 1575 678L685 678C676.715 678 670 671.284 670 663L670 638.5" stroke="#272727" stroke-width="2"/>
<path d="M180 320V776" stroke="#272727" stroke-width="2"/>
<g filter="url(#filter1_b_35_401)">
<rect x="60" y="230" width="240" height="90" rx="15" fill="#353535" fill-opacity="0.15"/>
<rect x="60.5" y="230.5" width="239" height="89" rx="14.5" stroke="#272727"/>
<path d="M112.93 283.863C109.016 283.863 106.824 280.699 106.824 275.039C106.824 269.391 109.016 266.227 112.93 266.227C116.832 266.227 119.023 269.391 119.023 275.039C119.023 280.699 116.832 283.863 112.93 283.863ZM109.602 275.039C109.602 275.391 109.613 275.73 109.625 276.047L115.859 271.477C115.355 269.578 114.359 268.594 112.93 268.594C110.762 268.594 109.602 270.844 109.602 275.039ZM112.93 281.496C115.086 281.496 116.246 279.246 116.246 275.039C116.246 274.699 116.234 274.359 116.223 274.043L110 278.625C110.504 280.512 111.488 281.496 112.93 281.496ZM127.789 278.93H127.613L124.789 283.5H121.859L126.055 277.113L121.824 270.668H124.988L127.73 275.215H127.906L130.648 270.668H133.66L129.441 276.996L133.684 283.5H130.613L127.789 278.93ZM148.473 280.98V283.5H138.031V266.59H140.832V280.98H148.473ZM151.977 266.59H157.941C161.387 266.59 163.602 268.793 163.602 272.227C163.602 275.637 161.34 277.84 157.824 277.84H154.812V283.5H151.977V266.59ZM154.812 268.957V275.473H157.238C159.523 275.473 160.73 274.359 160.73 272.215C160.73 270.07 159.523 268.957 157.238 268.957H154.812ZM188.516 283.5H185.68V269.062H180.734V266.59H193.461V269.062H188.516V283.5ZM201.934 283.758C198.395 283.758 196.156 281.555 196.156 278.062V276.105C196.156 272.613 198.395 270.41 201.934 270.41C205.473 270.41 207.711 272.613 207.711 276.105V278.062C207.711 281.555 205.473 283.758 201.934 283.758ZM201.934 272.672C200.035 272.672 198.852 274.043 198.852 276.258V277.91C198.852 280.125 200.035 281.496 201.934 281.496C203.832 281.496 205.016 280.125 205.016 277.91V276.258C205.016 274.043 203.832 272.672 201.934 272.672ZM214.918 276.07L219.84 270.668H223.016L218.176 275.895L223.344 283.5H220.168L216.184 277.641L214.742 279.07V283.5H212.023V265.711H214.742V276.07H214.918ZM234.652 280.02H237.242C236.938 282.223 234.758 283.758 231.887 283.758C228.23 283.758 226.121 281.66 226.121 278.004V276C226.121 272.637 228.383 270.41 231.793 270.41C235.168 270.41 237.266 272.625 237.266 276.188V277.746H228.805V278.367C228.805 280.324 230.012 281.59 231.875 281.59C233.293 281.59 234.383 280.969 234.652 280.02ZM231.746 272.566C229.906 272.566 228.805 273.82 228.805 275.918H234.617C234.617 273.832 233.539 272.566 231.746 272.566ZM240.898 283.5V270.668H243.535V272.859H243.723C244.379 271.289 245.797 270.41 247.684 270.41C250.473 270.41 251.984 272.074 251.984 275.18V283.5H249.254V275.848C249.254 273.785 248.41 272.801 246.652 272.801C244.824 272.801 243.629 274.078 243.629 276.023V283.5H240.898Z" fill="white"/>
</g>
<g filter="url(#filter2_b_35_401)">
<rect x="500" y="460" width="340" height="178" rx="15" fill="#353535" fill-opacity="0.15"/>
<rect x="500.5" y="460.5" width="339" height="177" rx="14.5" stroke="#483E2C"/>
<path d="M575.16 493.09H580.316C585.074 493.09 587.523 495.938 587.523 501.457C587.523 507.117 585.098 510 580.316 510H575.16V493.09ZM577.996 495.562V507.527H579.965C583.152 507.527 584.629 505.641 584.629 501.504C584.629 497.484 583.129 495.562 579.965 495.562H577.996ZM598.867 506.52H601.457C601.152 508.723 598.973 510.258 596.102 510.258C592.445 510.258 590.336 508.16 590.336 504.504V502.5C590.336 499.137 592.598 496.91 596.008 496.91C599.383 496.91 601.48 499.125 601.48 502.688V504.246H593.02V504.867C593.02 506.824 594.227 508.09 596.09 508.09C597.508 508.09 598.598 507.469 598.867 506.52ZM595.961 499.066C594.121 499.066 593.02 500.32 593.02 502.418H598.832C598.832 500.332 597.754 499.066 595.961 499.066ZM616.281 501.445H613.609C613.387 499.98 612.367 499.172 610.879 499.172C608.957 499.172 607.902 500.555 607.902 503.074V504.059C607.902 506.578 608.957 507.961 610.879 507.961C612.379 507.961 613.375 507.188 613.609 505.77H616.281C615.988 508.641 614.031 510.258 610.902 510.258C607.234 510.258 605.16 508.125 605.16 504.305V502.828C605.16 499.02 607.234 496.875 610.902 496.875C614.043 496.875 615.977 498.504 616.281 501.445ZM628.539 506.52H631.129C630.824 508.723 628.645 510.258 625.773 510.258C622.117 510.258 620.008 508.16 620.008 504.504V502.5C620.008 499.137 622.27 496.91 625.68 496.91C629.055 496.91 631.152 499.125 631.152 502.688V504.246H622.691V504.867C622.691 506.824 623.898 508.09 625.762 508.09C627.18 508.09 628.27 507.469 628.539 506.52ZM625.633 499.066C623.793 499.066 622.691 500.32 622.691 502.418H628.504C628.504 500.332 627.426 499.066 625.633 499.066ZM634.785 510V497.168H637.422V499.359H637.609C638.266 497.789 639.684 496.91 641.57 496.91C644.359 496.91 645.871 498.574 645.871 501.68V510H643.141V502.348C643.141 500.285 642.297 499.301 640.539 499.301C638.711 499.301 637.516 500.578 637.516 502.523V510H634.785ZM652.691 493.582H655.363V497.25H660.32V499.453H655.41V506.051C655.41 507.188 656.219 507.82 657.672 507.82C658.141 507.82 659.992 507.809 660.215 507.785V509.965C660.004 510 657.848 510.035 657.461 510.035C654.086 510.035 652.691 508.887 652.691 506.039V499.453H649.316V497.25H652.691V493.582ZM669.648 504.281V507.961H673.469V510H664.527V507.961H667.023V499.207H664.281V497.168H669.66V500.449H670.059C670.586 497.977 672.016 496.828 674.453 496.828C675.18 496.828 675.848 496.922 676.293 497.098V500.062C675.719 499.84 674.875 499.699 674.172 499.699C671.207 499.699 669.648 501.316 669.648 504.281ZM683.277 510.211C680.84 510.211 679.211 508.664 679.211 506.344C679.211 504.047 680.875 502.688 683.945 502.5L687.156 502.312V501.234C687.156 499.91 686.301 499.16 684.801 499.16C683.547 499.16 682.633 499.699 682.352 500.637H679.68C679.914 498.422 681.988 496.957 684.871 496.957C688.047 496.957 689.852 498.516 689.852 501.258V510H687.262V508.207H687.016C686.395 509.484 685.023 510.211 683.277 510.211ZM684.156 507.984C685.891 507.984 687.156 506.871 687.156 505.324V504.152L684.355 504.305C682.75 504.398 681.918 505.043 681.918 506.18C681.918 507.293 682.785 507.984 684.156 507.984ZM705.32 510H694.398V507.82H698.605V494.391H694.539V492.211H701.324V507.82H705.32V510ZM714.707 494.32C713.547 494.32 712.727 493.559 712.727 492.457C712.727 491.355 713.547 490.594 714.707 490.594C715.879 490.594 716.699 491.355 716.699 492.457C716.699 493.559 715.879 494.32 714.707 494.32ZM720.156 510H709.234V507.82H713.465V499.348H709.375V497.168H716.125V507.82H720.156V510ZM724.152 510V508.301L731.16 499.57V499.383H724.223V497.168H734.441V499.043L727.691 507.598V507.773H734.535V510H724.152ZM747.227 506.52H749.816C749.512 508.723 747.332 510.258 744.461 510.258C740.805 510.258 738.695 508.16 738.695 504.504V502.5C738.695 499.137 740.957 496.91 744.367 496.91C747.742 496.91 749.84 499.125 749.84 502.688V504.246H741.379V504.867C741.379 506.824 742.586 508.09 744.449 508.09C745.867 508.09 746.957 507.469 747.227 506.52ZM744.32 499.066C742.48 499.066 741.379 500.32 741.379 502.418H747.191C747.191 500.332 746.113 499.066 744.32 499.066ZM757.832 510.199C754.891 510.199 753.062 508.137 753.062 504.715V502.43C753.062 499.02 754.891 496.945 757.832 496.945C759.684 496.945 761.008 497.777 761.488 499.266H761.723V492.211H764.535V510H761.77V507.891H761.535C760.996 509.391 759.695 510.199 757.832 510.199ZM758.816 507.82C760.645 507.82 761.781 506.566 761.781 504.551V502.547C761.781 500.52 760.645 499.266 758.816 499.266C756.977 499.266 755.84 500.531 755.84 502.547V504.551C755.84 506.566 756.977 507.82 758.816 507.82ZM557.195 539.48V542H546.754V525.09H549.555V539.48H557.195ZM566.348 526.32C565.188 526.32 564.367 525.559 564.367 524.457C564.367 523.355 565.188 522.594 566.348 522.594C567.52 522.594 568.34 523.355 568.34 524.457C568.34 525.559 567.52 526.32 566.348 526.32ZM571.797 542H560.875V539.82H565.105V531.348H561.016V529.168H567.766V539.82H571.797V542ZM579.801 528.957C581.652 528.957 582.953 529.777 583.492 531.277H583.727V529.168H586.492V546.301H583.68V539.902H583.445C582.965 541.379 581.652 542.223 579.801 542.223C576.848 542.223 575.02 540.148 575.02 536.727V534.441C575.02 531.031 576.848 528.957 579.801 528.957ZM580.773 531.348C578.934 531.348 577.797 532.602 577.797 534.617V536.633C577.797 538.637 578.934 539.902 580.773 539.902C582.602 539.902 583.738 538.648 583.738 536.633V534.617C583.738 532.602 582.602 531.348 580.773 531.348ZM601.363 529.168V542H598.727V539.809H598.539C597.883 541.379 596.465 542.258 594.578 542.258C591.789 542.258 590.277 540.594 590.277 537.477V529.168H593.008V536.82C593.008 538.883 593.852 539.855 595.609 539.855C597.438 539.855 598.633 538.59 598.633 536.645V529.168H601.363ZM610.855 526.32C609.695 526.32 608.875 525.559 608.875 524.457C608.875 523.355 609.695 522.594 610.855 522.594C612.027 522.594 612.848 523.355 612.848 524.457C612.848 525.559 612.027 526.32 610.855 526.32ZM616.305 542H605.383V539.82H609.613V531.348H605.523V529.168H612.273V539.82H616.305V542ZM624.309 542.199C621.367 542.199 619.539 540.137 619.539 536.715V534.43C619.539 531.02 621.367 528.945 624.309 528.945C626.16 528.945 627.484 529.777 627.965 531.266H628.199V524.211H631.012V542H628.246V539.891H628.012C627.473 541.391 626.172 542.199 624.309 542.199ZM625.293 539.82C627.121 539.82 628.258 538.566 628.258 536.551V534.547C628.258 532.52 627.121 531.266 625.293 531.266C623.453 531.266 622.316 532.531 622.316 534.547V536.551C622.316 538.566 623.453 539.82 625.293 539.82ZM640.527 526.32C639.367 526.32 638.547 525.559 638.547 524.457C638.547 523.355 639.367 522.594 640.527 522.594C641.699 522.594 642.52 523.355 642.52 524.457C642.52 525.559 641.699 526.32 640.527 526.32ZM645.977 542H635.055V539.82H639.285V531.348H635.195V529.168H641.945V539.82H645.977V542ZM652.691 525.582H655.363V529.25H660.32V531.453H655.41V538.051C655.41 539.188 656.219 539.82 657.672 539.82C658.141 539.82 659.992 539.809 660.215 539.785V541.965C660.004 542 657.848 542.035 657.461 542.035C654.086 542.035 652.691 540.887 652.691 538.039V531.453H649.316V529.25H652.691V525.582ZM666.285 546.605C665.84 546.605 665.324 546.594 665.195 546.582V544.32C665.312 544.344 665.723 544.355 665.91 544.355C667.164 544.355 667.855 543.875 668.254 542.668L668.43 542.094L663.824 529.168H666.812L669.953 539.41H670.129L673.27 529.168H676.164L671.582 542.293C670.469 545.527 669.121 546.605 666.285 546.605ZM594.262 574.211C591.824 574.211 590.195 572.664 590.195 570.344C590.195 568.047 591.859 566.688 594.93 566.5L598.141 566.312V565.234C598.141 563.91 597.285 563.16 595.785 563.16C594.531 563.16 593.617 563.699 593.336 564.637H590.664C590.898 562.422 592.973 560.957 595.855 560.957C599.031 560.957 600.836 562.516 600.836 565.258V574H598.246V572.207H598C597.379 573.484 596.008 574.211 594.262 574.211ZM595.141 571.984C596.875 571.984 598.141 570.871 598.141 569.324V568.152L595.34 568.305C593.734 568.398 592.902 569.043 592.902 570.18C592.902 571.293 593.77 571.984 595.141 571.984ZM605.113 574V561.168H607.75V563.359H607.938C608.594 561.789 610.012 560.91 611.898 560.91C614.688 560.91 616.199 562.574 616.199 565.68V574H613.469V566.348C613.469 564.285 612.625 563.301 610.867 563.301C609.039 563.301 607.844 564.578 607.844 566.523V574H605.113ZM624.309 574.199C621.367 574.199 619.539 572.137 619.539 568.715V566.43C619.539 563.02 621.367 560.945 624.309 560.945C626.16 560.945 627.484 561.777 627.965 563.266H628.199V556.211H631.012V574H628.246V571.891H628.012C627.473 573.391 626.172 574.199 624.309 574.199ZM625.293 571.82C627.121 571.82 628.258 570.566 628.258 568.551V566.547C628.258 564.52 627.121 563.266 625.293 563.266C623.453 563.266 622.316 564.531 622.316 566.547V568.551C622.316 570.566 623.453 571.82 625.293 571.82Z" fill="white"/>
<path d="M705.555 539.48V542H695.113V525.09H697.914V539.48H705.555ZM714.707 526.32C713.547 526.32 712.727 525.559 712.727 524.457C712.727 523.355 713.547 522.594 714.707 522.594C715.879 522.594 716.699 523.355 716.699 524.457C716.699 525.559 715.879 526.32 714.707 526.32ZM720.156 542H709.234V539.82H713.465V531.348H709.375V529.168H716.125V539.82H720.156V542ZM724.352 532.801C724.352 530.41 726.32 528.887 729.355 528.887C732.297 528.887 734.16 530.246 734.336 532.555H731.758C731.57 531.594 730.645 530.996 729.32 530.996C727.949 530.996 727.047 531.629 727.047 532.59C727.047 533.41 727.633 533.879 729.027 534.184L730.938 534.594C733.504 535.145 734.641 536.234 734.641 538.156C734.641 540.652 732.59 542.258 729.367 542.258C726.227 542.258 724.234 540.863 724.047 538.543H726.754C726.988 539.551 727.961 540.125 729.414 540.125C730.902 540.125 731.84 539.469 731.84 538.473C731.84 537.629 731.301 537.195 729.836 536.879L727.914 536.457C725.547 535.93 724.352 534.711 724.352 532.801ZM741.707 525.582H744.379V529.25H749.336V531.453H744.426V538.051C744.426 539.188 745.234 539.82 746.688 539.82C747.156 539.82 749.008 539.809 749.23 539.785V541.965C749.02 542 746.863 542.035 746.477 542.035C743.102 542.035 741.707 540.887 741.707 538.039V531.453H738.332V529.25H741.707V525.582ZM759.215 526.32C758.055 526.32 757.234 525.559 757.234 524.457C757.234 523.355 758.055 522.594 759.215 522.594C760.387 522.594 761.207 523.355 761.207 524.457C761.207 525.559 760.387 526.32 759.215 526.32ZM764.664 542H753.742V539.82H757.973V531.348H753.883V529.168H760.633V539.82H764.664V542ZM768.309 542V529.168H770.945V531.359H771.133C771.789 529.789 773.207 528.91 775.094 528.91C777.883 528.91 779.395 530.574 779.395 533.68V542H776.664V534.348C776.664 532.285 775.82 531.301 774.062 531.301C772.234 531.301 771.039 532.578 771.039 534.523V542H768.309ZM788.324 546.828C785.137 546.828 783.027 545.457 782.793 543.242H785.465C785.699 544.168 786.836 544.766 788.359 544.766C790.363 544.766 791.453 543.805 791.453 542.012V539.691H791.219C790.762 541.109 789.285 542.012 787.398 542.012C784.434 542.012 782.594 539.914 782.594 536.527V534.43C782.594 531.02 784.457 528.945 787.504 528.945C789.367 528.945 790.797 529.836 791.266 531.266H791.5V529.168H794.184V541.988C794.184 545 791.969 546.828 788.324 546.828ZM785.371 536.352C785.371 538.355 786.555 539.633 788.406 539.633C790.246 539.633 791.43 538.355 791.43 536.352V534.547C791.43 532.543 790.246 531.266 788.406 531.266C786.555 531.266 785.371 532.543 785.371 534.547V536.352ZM658.973 574L657.754 569.559H652.387L651.156 574H648.32L653.535 557.09H656.793L662.008 574H658.973ZM655.023 560.055L653.02 567.309H657.133L655.141 560.055H655.023ZM675.543 561.168V574H672.906V571.809H672.719C672.062 573.379 670.645 574.258 668.758 574.258C665.969 574.258 664.457 572.594 664.457 569.477V561.168H667.188V568.82C667.188 570.883 668.031 571.855 669.789 571.855C671.617 571.855 672.812 570.59 672.812 568.645V561.168H675.543ZM690.461 565.445H687.789C687.566 563.98 686.547 563.172 685.059 563.172C683.137 563.172 682.082 564.555 682.082 567.074V568.059C682.082 570.578 683.137 571.961 685.059 571.961C686.559 571.961 687.555 571.188 687.789 569.77H690.461C690.168 572.641 688.211 574.258 685.082 574.258C681.414 574.258 679.34 572.125 679.34 568.305V566.828C679.34 563.02 681.414 560.875 685.082 560.875C688.223 560.875 690.156 562.504 690.461 565.445ZM697.199 557.582H699.871V561.25H704.828V563.453H699.918V570.051C699.918 571.188 700.727 571.82 702.18 571.82C702.648 571.82 704.5 571.809 704.723 571.785V573.965C704.512 574 702.355 574.035 701.969 574.035C698.594 574.035 697.199 572.887 697.199 570.039V563.453H693.824V561.25H697.199V557.582ZM714.707 558.32C713.547 558.32 712.727 557.559 712.727 556.457C712.727 555.355 713.547 554.594 714.707 554.594C715.879 554.594 716.699 555.355 716.699 556.457C716.699 557.559 715.879 558.32 714.707 558.32ZM720.156 574H709.234V571.82H713.465V563.348H709.375V561.168H716.125V571.82H720.156V574ZM729.344 574.258C725.805 574.258 723.566 572.055 723.566 568.562V566.605C723.566 563.113 725.805 560.91 729.344 560.91C732.883 560.91 735.121 563.113 735.121 566.605V568.562C735.121 572.055 732.883 574.258 729.344 574.258ZM729.344 563.172C727.445 563.172 726.262 564.543 726.262 566.758V568.41C726.262 570.625 727.445 571.996 729.344 571.996C731.242 571.996 732.426 570.625 732.426 568.41V566.758C732.426 564.543 731.242 563.172 729.344 563.172ZM738.637 574V561.168H741.273V563.359H741.461C742.117 561.789 743.535 560.91 745.422 560.91C748.211 560.91 749.723 562.574 749.723 565.68V574H746.992V566.348C746.992 564.285 746.148 563.301 744.391 563.301C742.562 563.301 741.367 564.578 741.367 566.523V574H738.637ZM612.625 589.09H618.59C622.035 589.09 624.25 591.293 624.25 594.727C624.25 598.137 621.988 600.34 618.473 600.34H615.461V606H612.625V589.09ZM615.461 591.457V597.973H617.887C620.172 597.973 621.379 596.859 621.379 594.715C621.379 592.57 620.172 591.457 617.887 591.457H615.461ZM638.559 606H627.637V603.82H631.844V590.391H627.777V588.211H634.562V603.82H638.559V606ZM646.188 606.211C643.75 606.211 642.121 604.664 642.121 602.344C642.121 600.047 643.785 598.688 646.855 598.5L650.066 598.312V597.234C650.066 595.91 649.211 595.16 647.711 595.16C646.457 595.16 645.543 595.699 645.262 596.637H642.59C642.824 594.422 644.898 592.957 647.781 592.957C650.957 592.957 652.762 594.516 652.762 597.258V606H650.172V604.207H649.926C649.305 605.484 647.934 606.211 646.188 606.211ZM647.066 603.984C648.801 603.984 650.066 602.871 650.066 601.324V600.152L647.266 600.305C645.66 600.398 644.828 601.043 644.828 602.18C644.828 603.293 645.695 603.984 647.066 603.984ZM660.109 589.582H662.781V593.25H667.738V595.453H662.828V602.051C662.828 603.188 663.637 603.82 665.09 603.82C665.559 603.82 667.41 603.809 667.633 603.785V605.965C667.422 606 665.266 606.035 664.879 606.035C661.504 606.035 660.109 604.887 660.109 602.039V595.453H656.734V593.25H660.109V589.582ZM675.344 606V595.453H671.91V593.25H675.344V592.184C675.344 589.453 676.773 588.328 680.125 588.328C680.605 588.328 683.113 588.375 683.383 588.41V590.461C683.02 590.426 680.652 590.391 680.184 590.391C678.754 590.391 678.016 590.953 678.016 592.043V593.25H683.383V595.453H678.062V606H675.344ZM692.254 606.258C688.715 606.258 686.477 604.055 686.477 600.562V598.605C686.477 595.113 688.715 592.91 692.254 592.91C695.793 592.91 698.031 595.113 698.031 598.605V600.562C698.031 604.055 695.793 606.258 692.254 606.258ZM692.254 595.172C690.355 595.172 689.172 596.543 689.172 598.758V600.41C689.172 602.625 690.355 603.996 692.254 603.996C694.152 603.996 695.336 602.625 695.336 600.41V598.758C695.336 596.543 694.152 595.172 692.254 595.172ZM706.738 600.281V603.961H710.559V606H701.617V603.961H704.113V595.207H701.371V593.168H706.75V596.449H707.148C707.676 593.977 709.105 592.828 711.543 592.828C712.27 592.828 712.938 592.922 713.383 593.098V596.062C712.809 595.84 711.965 595.699 711.262 595.699C708.297 595.699 706.738 597.316 706.738 600.281ZM728.289 596.25V606H725.945V597.117C725.945 595.945 725.441 595.277 724.574 595.277C723.672 595.277 723.109 596.039 723.109 597.246V606H720.777V597.117C720.777 595.934 720.285 595.277 719.406 595.277C718.492 595.277 717.906 596.039 717.906 597.246V606H715.562V593.168H717.953V595.09H718.246C718.539 593.695 719.441 592.91 720.672 592.91C721.867 592.91 722.688 593.672 722.957 595.02H723.25C723.543 593.707 724.492 592.91 725.746 592.91C727.41 592.91 728.289 594.07 728.289 596.25Z" fill="#DCB976"/>
</g>
<g filter="url(#filter3_b_35_401)">
<rect x="960" y="460" width="340" height="178" rx="15" fill="#353535" fill-opacity="0.15"/>
<rect x="960.5" y="460.5" width="339" height="177" rx="14.5" stroke="#483E2C"/>
<path d="M1035.16 493.09H1040.32C1045.07 493.09 1047.52 495.938 1047.52 501.457C1047.52 507.117 1045.1 510 1040.32 510H1035.16V493.09ZM1038 495.562V507.527H1039.96C1043.15 507.527 1044.63 505.641 1044.63 501.504C1044.63 497.484 1043.13 495.562 1039.96 495.562H1038ZM1058.87 506.52H1061.46C1061.15 508.723 1058.97 510.258 1056.1 510.258C1052.45 510.258 1050.34 508.16 1050.34 504.504V502.5C1050.34 499.137 1052.6 496.91 1056.01 496.91C1059.38 496.91 1061.48 499.125 1061.48 502.688V504.246H1053.02V504.867C1053.02 506.824 1054.23 508.09 1056.09 508.09C1057.51 508.09 1058.6 507.469 1058.87 506.52ZM1055.96 499.066C1054.12 499.066 1053.02 500.32 1053.02 502.418H1058.83C1058.83 500.332 1057.75 499.066 1055.96 499.066ZM1076.28 501.445H1073.61C1073.39 499.98 1072.37 499.172 1070.88 499.172C1068.96 499.172 1067.9 500.555 1067.9 503.074V504.059C1067.9 506.578 1068.96 507.961 1070.88 507.961C1072.38 507.961 1073.38 507.188 1073.61 505.77H1076.28C1075.99 508.641 1074.03 510.258 1070.9 510.258C1067.23 510.258 1065.16 508.125 1065.16 504.305V502.828C1065.16 499.02 1067.23 496.875 1070.9 496.875C1074.04 496.875 1075.98 498.504 1076.28 501.445ZM1088.54 506.52H1091.13C1090.82 508.723 1088.64 510.258 1085.77 510.258C1082.12 510.258 1080.01 508.16 1080.01 504.504V502.5C1080.01 499.137 1082.27 496.91 1085.68 496.91C1089.05 496.91 1091.15 499.125 1091.15 502.688V504.246H1082.69V504.867C1082.69 506.824 1083.9 508.09 1085.76 508.09C1087.18 508.09 1088.27 507.469 1088.54 506.52ZM1085.63 499.066C1083.79 499.066 1082.69 500.32 1082.69 502.418H1088.5C1088.5 500.332 1087.43 499.066 1085.63 499.066ZM1094.79 510V497.168H1097.42V499.359H1097.61C1098.27 497.789 1099.68 496.91 1101.57 496.91C1104.36 496.91 1105.87 498.574 1105.87 501.68V510H1103.14V502.348C1103.14 500.285 1102.3 499.301 1100.54 499.301C1098.71 499.301 1097.52 500.578 1097.52 502.523V510H1094.79ZM1112.69 493.582H1115.36V497.25H1120.32V499.453H1115.41V506.051C1115.41 507.188 1116.22 507.82 1117.67 507.82C1118.14 507.82 1119.99 507.809 1120.21 507.785V509.965C1120 510 1117.85 510.035 1117.46 510.035C1114.09 510.035 1112.69 508.887 1112.69 506.039V499.453H1109.32V497.25H1112.69V493.582ZM1129.65 504.281V507.961H1133.47V510H1124.53V507.961H1127.02V499.207H1124.28V497.168H1129.66V500.449H1130.06C1130.59 497.977 1132.02 496.828 1134.45 496.828C1135.18 496.828 1135.85 496.922 1136.29 497.098V500.062C1135.72 499.84 1134.88 499.699 1134.17 499.699C1131.21 499.699 1129.65 501.316 1129.65 504.281ZM1143.28 510.211C1140.84 510.211 1139.21 508.664 1139.21 506.344C1139.21 504.047 1140.88 502.688 1143.95 502.5L1147.16 502.312V501.234C1147.16 499.91 1146.3 499.16 1144.8 499.16C1143.55 499.16 1142.63 499.699 1142.35 500.637H1139.68C1139.91 498.422 1141.99 496.957 1144.87 496.957C1148.05 496.957 1149.85 498.516 1149.85 501.258V510H1147.26V508.207H1147.02C1146.39 509.484 1145.02 510.211 1143.28 510.211ZM1144.16 507.984C1145.89 507.984 1147.16 506.871 1147.16 505.324V504.152L1144.36 504.305C1142.75 504.398 1141.92 505.043 1141.92 506.18C1141.92 507.293 1142.79 507.984 1144.16 507.984ZM1165.32 510H1154.4V507.82H1158.61V494.391H1154.54V492.211H1161.32V507.82H1165.32V510ZM1174.71 494.32C1173.55 494.32 1172.73 493.559 1172.73 492.457C1172.73 491.355 1173.55 490.594 1174.71 490.594C1175.88 490.594 1176.7 491.355 1176.7 492.457C1176.7 493.559 1175.88 494.32 1174.71 494.32ZM1180.16 510H1169.23V507.82H1173.46V499.348H1169.38V497.168H1176.12V507.82H1180.16V510ZM1184.15 510V508.301L1191.16 499.57V499.383H1184.22V497.168H1194.44V499.043L1187.69 507.598V507.773H1194.54V510H1184.15ZM1207.23 506.52H1209.82C1209.51 508.723 1207.33 510.258 1204.46 510.258C1200.8 510.258 1198.7 508.16 1198.7 504.504V502.5C1198.7 499.137 1200.96 496.91 1204.37 496.91C1207.74 496.91 1209.84 499.125 1209.84 502.688V504.246H1201.38V504.867C1201.38 506.824 1202.59 508.09 1204.45 508.09C1205.87 508.09 1206.96 507.469 1207.23 506.52ZM1204.32 499.066C1202.48 499.066 1201.38 500.32 1201.38 502.418H1207.19C1207.19 500.332 1206.11 499.066 1204.32 499.066ZM1217.83 510.199C1214.89 510.199 1213.06 508.137 1213.06 504.715V502.43C1213.06 499.02 1214.89 496.945 1217.83 496.945C1219.68 496.945 1221.01 497.777 1221.49 499.266H1221.72V492.211H1224.54V510H1221.77V507.891H1221.54C1221 509.391 1219.7 510.199 1217.83 510.199ZM1218.82 507.82C1220.64 507.82 1221.78 506.566 1221.78 504.551V502.547C1221.78 500.52 1220.64 499.266 1218.82 499.266C1216.98 499.266 1215.84 500.531 1215.84 502.547V504.551C1215.84 506.566 1216.98 507.82 1218.82 507.82ZM1046.33 574V563.453H1042.89V561.25H1046.33V560.184C1046.33 557.453 1047.76 556.328 1051.11 556.328C1051.59 556.328 1054.1 556.375 1054.37 556.41V558.461C1054 558.426 1051.64 558.391 1051.17 558.391C1049.74 558.391 1049 558.953 1049 560.043V561.25H1054.37V563.453H1049.05V574H1046.33ZM1063.24 574.258C1059.7 574.258 1057.46 572.055 1057.46 568.562V566.605C1057.46 563.113 1059.7 560.91 1063.24 560.91C1066.78 560.91 1069.02 563.113 1069.02 566.605V568.562C1069.02 572.055 1066.78 574.258 1063.24 574.258ZM1063.24 563.172C1061.34 563.172 1060.16 564.543 1060.16 566.758V568.41C1060.16 570.625 1061.34 571.996 1063.24 571.996C1065.14 571.996 1066.32 570.625 1066.32 568.41V566.758C1066.32 564.543 1065.14 563.172 1063.24 563.172ZM1077.72 568.281V571.961H1081.54V574H1072.6V571.961H1075.1V563.207H1072.36V561.168H1077.73V564.449H1078.13C1078.66 561.977 1080.09 560.828 1082.53 560.828C1083.25 560.828 1083.92 560.922 1084.37 561.098V564.062C1083.79 563.84 1082.95 563.699 1082.25 563.699C1079.28 563.699 1077.72 565.316 1077.72 568.281Z" fill="white"/>
<path d="M1026.29 539.035L1030.16 525.09H1032.99L1027.78 542H1024.52L1019.3 525.09H1022.33L1026.17 539.035H1026.29ZM1044.03 538.52H1046.62C1046.32 540.723 1044.14 542.258 1041.27 542.258C1037.61 542.258 1035.5 540.16 1035.5 536.504V534.5C1035.5 531.137 1037.76 528.91 1041.17 528.91C1044.55 528.91 1046.64 531.125 1046.64 534.688V536.246H1038.18V536.867C1038.18 538.824 1039.39 540.09 1041.25 540.09C1042.67 540.09 1043.76 539.469 1044.03 538.52ZM1041.12 531.066C1039.29 531.066 1038.18 532.32 1038.18 534.418H1044C1044 532.332 1042.92 531.066 1041.12 531.066ZM1050.28 542V529.168H1052.91V531.359H1053.1C1053.76 529.789 1055.18 528.91 1057.06 528.91C1059.85 528.91 1061.36 530.574 1061.36 533.68V542H1058.63V534.348C1058.63 532.285 1057.79 531.301 1056.03 531.301C1054.2 531.301 1053.01 532.578 1053.01 534.523V542H1050.28ZM1068.18 525.582H1070.86V529.25H1075.81V531.453H1070.9V538.051C1070.9 539.188 1071.71 539.82 1073.16 539.82C1073.63 539.82 1075.48 539.809 1075.71 539.785V541.965C1075.5 542 1073.34 542.035 1072.95 542.035C1069.58 542.035 1068.18 540.887 1068.18 538.039V531.453H1064.81V529.25H1068.18V525.582ZM1091.04 529.168V542H1088.4V539.809H1088.21C1087.55 541.379 1086.14 542.258 1084.25 542.258C1081.46 542.258 1079.95 540.594 1079.95 537.477V529.168H1082.68V536.82C1082.68 538.883 1083.52 539.855 1085.28 539.855C1087.11 539.855 1088.3 538.59 1088.3 536.645V529.168H1091.04ZM1099.98 536.281V539.961H1103.8V542H1094.86V539.961H1097.35V531.207H1094.61V529.168H1099.99V532.449H1100.39C1100.91 529.977 1102.34 528.828 1104.78 528.828C1105.51 528.828 1106.18 528.922 1106.62 529.098V532.062C1106.05 531.84 1105.2 531.699 1104.5 531.699C1101.54 531.699 1099.98 533.316 1099.98 536.281ZM1118.21 538.52H1120.8C1120.5 540.723 1118.32 542.258 1115.45 542.258C1111.79 542.258 1109.68 540.16 1109.68 536.504V534.5C1109.68 531.137 1111.94 528.91 1115.35 528.91C1118.73 528.91 1120.82 531.125 1120.82 534.688V536.246H1112.36V536.867C1112.36 538.824 1113.57 540.09 1115.43 540.09C1116.85 540.09 1117.94 539.469 1118.21 538.52ZM1115.3 531.066C1113.46 531.066 1112.36 532.32 1112.36 534.418H1118.18C1118.18 532.332 1117.1 531.066 1115.3 531.066ZM1145.21 539.785C1147.17 539.785 1148.39 538.52 1148.42 536.457H1151.29C1151.29 540.055 1148.91 542.34 1145.22 542.34C1141.12 542.34 1138.72 539.703 1138.72 535.18V531.91C1138.72 527.387 1141.12 524.75 1145.22 524.75C1148.98 524.75 1151.25 527.012 1151.29 530.844H1148.42C1148.38 528.711 1147.07 527.305 1145.18 527.305C1142.87 527.305 1141.65 528.887 1141.65 531.91V535.18C1141.65 538.203 1142.87 539.785 1145.21 539.785ZM1158.11 542.211C1155.68 542.211 1154.05 540.664 1154.05 538.344C1154.05 536.047 1155.71 534.688 1158.78 534.5L1161.99 534.312V533.234C1161.99 531.91 1161.14 531.16 1159.64 531.16C1158.38 531.16 1157.47 531.699 1157.19 532.637H1154.52C1154.75 530.422 1156.82 528.957 1159.71 528.957C1162.88 528.957 1164.69 530.516 1164.69 533.258V542H1162.1V540.207H1161.85C1161.23 541.484 1159.86 542.211 1158.11 542.211ZM1158.99 539.984C1160.73 539.984 1161.99 538.871 1161.99 537.324V536.152L1159.19 536.305C1157.59 536.398 1156.75 537.043 1156.75 538.18C1156.75 539.293 1157.62 539.984 1158.99 539.984ZM1175.69 528.957C1178.64 528.957 1180.47 531.031 1180.47 534.441V536.727C1180.47 540.148 1178.64 542.223 1175.69 542.223C1173.84 542.223 1172.53 541.379 1172.05 539.902H1171.81V546.301H1169V529.168H1171.77V531.277H1172C1172.54 529.777 1173.84 528.957 1175.69 528.957ZM1174.72 531.348C1172.89 531.348 1171.75 532.602 1171.75 534.617V536.633C1171.75 538.648 1172.89 539.902 1174.72 539.902C1176.56 539.902 1177.7 538.637 1177.7 536.633V534.617C1177.7 532.602 1176.56 531.348 1174.72 531.348ZM1189.54 526.32C1188.38 526.32 1187.56 525.559 1187.56 524.457C1187.56 523.355 1188.38 522.594 1189.54 522.594C1190.71 522.594 1191.54 523.355 1191.54 524.457C1191.54 525.559 1190.71 526.32 1189.54 526.32ZM1194.99 542H1184.07V539.82H1188.3V531.348H1184.21V529.168H1190.96V539.82H1194.99V542ZM1201.71 525.582H1204.38V529.25H1209.34V531.453H1204.43V538.051C1204.43 539.188 1205.23 539.82 1206.69 539.82C1207.16 539.82 1209.01 539.809 1209.23 539.785V541.965C1209.02 542 1206.86 542.035 1206.48 542.035C1203.1 542.035 1201.71 540.887 1201.71 538.039V531.453H1198.33V529.25H1201.71V525.582ZM1217.46 542.211C1215.02 542.211 1213.39 540.664 1213.39 538.344C1213.39 536.047 1215.05 534.688 1218.12 534.5L1221.34 534.312V533.234C1221.34 531.91 1220.48 531.16 1218.98 531.16C1217.73 531.16 1216.81 531.699 1216.53 532.637H1213.86C1214.09 530.422 1216.17 528.957 1219.05 528.957C1222.23 528.957 1224.03 530.516 1224.03 533.258V542H1221.44V540.207H1221.2C1220.57 541.484 1219.2 542.211 1217.46 542.211ZM1218.34 539.984C1220.07 539.984 1221.34 538.871 1221.34 537.324V536.152L1218.54 536.305C1216.93 536.398 1216.1 537.043 1216.1 538.18C1216.1 539.293 1216.96 539.984 1218.34 539.984ZM1239.5 542H1228.58V539.82H1232.79V526.391H1228.72V524.211H1235.5V539.82H1239.5V542ZM1113.2 571.527V574H1102.8V557.09H1113.2V559.562H1105.64V564.273H1112.76V566.582H1105.64V571.527H1113.2ZM1128.95 564.25V574H1126.6V565.117C1126.6 563.945 1126.1 563.277 1125.23 563.277C1124.33 563.277 1123.77 564.039 1123.77 565.246V574H1121.43V565.117C1121.43 563.934 1120.94 563.277 1120.06 563.277C1119.15 563.277 1118.56 564.039 1118.56 565.246V574H1116.22V561.168H1118.61V563.09H1118.9C1119.2 561.695 1120.1 560.91 1121.33 560.91C1122.52 560.91 1123.34 561.672 1123.61 563.02H1123.91C1124.2 561.707 1125.15 560.91 1126.4 560.91C1128.07 560.91 1128.95 562.07 1128.95 564.25ZM1140.46 570.52H1143.05C1142.75 572.723 1140.57 574.258 1137.7 574.258C1134.04 574.258 1131.93 572.16 1131.93 568.504V566.5C1131.93 563.137 1134.2 560.91 1137.61 560.91C1140.98 560.91 1143.08 563.125 1143.08 566.688V568.246H1134.62V568.867C1134.62 570.824 1135.82 572.09 1137.69 572.09C1139.11 572.09 1140.2 571.469 1140.46 570.52ZM1137.56 563.066C1135.72 563.066 1134.62 564.32 1134.62 566.418H1140.43C1140.43 564.332 1139.35 563.066 1137.56 563.066ZM1151.9 568.281V571.961H1155.72V574H1146.78V571.961H1149.28V563.207H1146.54V561.168H1151.91V564.449H1152.31C1152.84 561.977 1154.27 560.828 1156.71 560.828C1157.43 560.828 1158.1 560.922 1158.55 561.098V564.062C1157.97 563.84 1157.13 563.699 1156.43 563.699C1153.46 563.699 1151.9 565.316 1151.9 568.281ZM1166.73 578.828C1163.54 578.828 1161.43 577.457 1161.2 575.242H1163.87C1164.1 576.168 1165.24 576.766 1166.76 576.766C1168.77 576.766 1169.86 575.805 1169.86 574.012V571.691H1169.62C1169.16 573.109 1167.69 574.012 1165.8 574.012C1162.84 574.012 1161 571.914 1161 568.527V566.43C1161 563.02 1162.86 560.945 1165.91 560.945C1167.77 560.945 1169.2 561.836 1169.67 563.266H1169.9V561.168H1172.59V573.988C1172.59 577 1170.37 578.828 1166.73 578.828ZM1163.77 568.352C1163.77 570.355 1164.96 571.633 1166.81 571.633C1168.65 571.633 1169.83 570.355 1169.83 568.352V566.547C1169.83 564.543 1168.65 563.266 1166.81 563.266C1164.96 563.266 1163.77 564.543 1163.77 566.547V568.352ZM1182.12 558.32C1180.96 558.32 1180.14 557.559 1180.14 556.457C1180.14 555.355 1180.96 554.594 1182.12 554.594C1183.3 554.594 1184.12 555.355 1184.12 556.457C1184.12 557.559 1183.3 558.32 1182.12 558.32ZM1187.57 574H1176.65V571.82H1180.88V563.348H1176.79V561.168H1183.54V571.82H1187.57V574ZM1191.22 574V561.168H1193.86V563.359H1194.04C1194.7 561.789 1196.12 560.91 1198 560.91C1200.79 560.91 1202.3 562.574 1202.3 565.68V574H1199.57V566.348C1199.57 564.285 1198.73 563.301 1196.97 563.301C1195.14 563.301 1193.95 564.578 1193.95 566.523V574H1191.22ZM1211.23 578.828C1208.05 578.828 1205.94 577.457 1205.7 575.242H1208.38C1208.61 576.168 1209.75 576.766 1211.27 576.766C1213.27 576.766 1214.36 575.805 1214.36 574.012V571.691H1214.13C1213.67 573.109 1212.2 574.012 1210.31 574.012C1207.34 574.012 1205.5 571.914 1205.5 568.527V566.43C1205.5 563.02 1207.37 560.945 1210.41 560.945C1212.28 560.945 1213.71 561.836 1214.18 563.266H1214.41V561.168H1217.09V573.988C1217.09 577 1214.88 578.828 1211.23 578.828ZM1208.28 568.352C1208.28 570.355 1209.46 571.633 1211.32 571.633C1213.16 571.633 1214.34 570.355 1214.34 568.352V566.547C1214.34 564.543 1213.16 563.266 1211.32 563.266C1209.46 563.266 1208.28 564.543 1208.28 566.547V568.352ZM1072.62 589.09H1078.59C1082.04 589.09 1084.25 591.293 1084.25 594.727C1084.25 598.137 1081.99 600.34 1078.47 600.34H1075.46V606H1072.62V589.09ZM1075.46 591.457V597.973H1077.89C1080.17 597.973 1081.38 596.859 1081.38 594.715C1081.38 592.57 1080.17 591.457 1077.89 591.457H1075.46ZM1092.56 600.281V603.961H1096.38V606H1087.44V603.961H1089.93V595.207H1087.19V593.168H1092.57V596.449H1092.97C1093.5 593.977 1094.93 592.828 1097.36 592.828C1098.09 592.828 1098.76 592.922 1099.2 593.098V596.062C1098.63 595.84 1097.79 595.699 1097.08 595.699C1094.12 595.699 1092.56 597.316 1092.56 600.281ZM1107.75 606.258C1104.21 606.258 1101.97 604.055 1101.97 600.562V598.605C1101.97 595.113 1104.21 592.91 1107.75 592.91C1111.29 592.91 1113.52 595.113 1113.52 598.605V600.562C1113.52 604.055 1111.29 606.258 1107.75 606.258ZM1107.75 595.172C1105.85 595.172 1104.66 596.543 1104.66 598.758V600.41C1104.66 602.625 1105.85 603.996 1107.75 603.996C1109.64 603.996 1110.83 602.625 1110.83 600.41V598.758C1110.83 596.543 1109.64 595.172 1107.75 595.172ZM1124.13 590.32C1122.96 590.32 1122.14 589.559 1122.14 588.457C1122.14 587.355 1122.96 586.594 1124.13 586.594C1125.29 586.594 1126.11 587.355 1126.11 588.457C1126.11 589.559 1125.29 590.32 1124.13 590.32ZM1125.63 593.168V605.672C1125.63 608.859 1124.19 610.066 1120.48 610.066C1119.91 610.066 1117.81 610.043 1117.26 610.008V607.617C1117.66 607.652 1119.89 607.676 1120.39 607.676C1122.31 607.676 1122.97 607.125 1122.97 605.59V595.348H1117.45V593.168H1125.63ZM1140.46 602.52H1143.05C1142.75 604.723 1140.57 606.258 1137.7 606.258C1134.04 606.258 1131.93 604.16 1131.93 600.504V598.5C1131.93 595.137 1134.2 592.91 1137.61 592.91C1140.98 592.91 1143.08 595.125 1143.08 598.688V600.246H1134.62V600.867C1134.62 602.824 1135.82 604.09 1137.69 604.09C1139.11 604.09 1140.2 603.469 1140.46 602.52ZM1137.56 595.066C1135.72 595.066 1134.62 596.32 1134.62 598.418H1140.43C1140.43 596.332 1139.35 595.066 1137.56 595.066ZM1157.88 597.445H1155.21C1154.98 595.98 1153.96 595.172 1152.48 595.172C1150.55 595.172 1149.5 596.555 1149.5 599.074V600.059C1149.5 602.578 1150.55 603.961 1152.48 603.961C1153.98 603.961 1154.97 603.188 1155.21 601.77H1157.88C1157.59 604.641 1155.63 606.258 1152.5 606.258C1148.83 606.258 1146.76 604.125 1146.76 600.305V598.828C1146.76 595.02 1148.83 592.875 1152.5 592.875C1155.64 592.875 1157.57 594.504 1157.88 597.445ZM1164.62 589.582H1167.29V593.25H1172.25V595.453H1167.34V602.051C1167.34 603.188 1168.14 603.82 1169.6 603.82C1170.07 603.82 1171.92 603.809 1172.14 603.785V605.965C1171.93 606 1169.77 606.035 1169.39 606.035C1166.01 606.035 1164.62 604.887 1164.62 602.039V595.453H1161.24V593.25H1164.62V589.582ZM1176.93 596.801C1176.93 594.41 1178.9 592.887 1181.94 592.887C1184.88 592.887 1186.74 594.246 1186.92 596.555H1184.34C1184.15 595.594 1183.23 594.996 1181.9 594.996C1180.53 594.996 1179.63 595.629 1179.63 596.59C1179.63 597.41 1180.21 597.879 1181.61 598.184L1183.52 598.594C1186.09 599.145 1187.22 600.234 1187.22 602.156C1187.22 604.652 1185.17 606.258 1181.95 606.258C1178.81 606.258 1176.82 604.863 1176.63 602.543H1179.34C1179.57 603.551 1180.54 604.125 1182 604.125C1183.48 604.125 1184.42 603.469 1184.42 602.473C1184.42 601.629 1183.88 601.195 1182.42 600.879L1180.5 600.457C1178.13 599.93 1176.93 598.711 1176.93 596.801Z" fill="#DCB976"/>
</g>
<g filter="url(#filter4_b_35_401)">
<rect x="1420" y="460" width="340" height="178" rx="15" fill="#353535" fill-opacity="0.15"/>
<rect x="1420.5" y="460.5" width="339" height="177" rx="14.5" stroke="#483E2C"/>
<path d="M1541.88 526L1540.66 521.559H1535.3L1534.07 526H1531.23L1536.45 509.09H1539.7L1544.92 526H1541.88ZM1537.93 512.055L1535.93 519.309H1540.04L1538.05 512.055H1537.93ZM1551.73 526.199C1548.79 526.199 1546.96 524.137 1546.96 520.715V518.43C1546.96 515.02 1548.79 512.945 1551.73 512.945C1553.58 512.945 1554.9 513.777 1555.38 515.266H1555.62V508.211H1558.43V526H1555.66V523.891H1555.43C1554.89 525.391 1553.59 526.199 1551.73 526.199ZM1552.71 523.82C1554.54 523.82 1555.68 522.566 1555.68 520.551V518.547C1555.68 516.52 1554.54 515.266 1552.71 515.266C1550.87 515.266 1549.73 516.531 1549.73 518.547V520.551C1549.73 522.566 1550.87 523.82 1552.71 523.82ZM1561.65 513.168H1564.58L1567.69 523.293H1567.88L1570.95 513.168H1573.84L1569.29 526H1566.22L1561.65 513.168ZM1581.02 526.211C1578.59 526.211 1576.96 524.664 1576.96 522.344C1576.96 520.047 1578.62 518.688 1581.69 518.5L1584.9 518.312V517.234C1584.9 515.91 1584.05 515.16 1582.55 515.16C1581.29 515.16 1580.38 515.699 1580.1 516.637H1577.43C1577.66 514.422 1579.73 512.957 1582.62 512.957C1585.79 512.957 1587.6 514.516 1587.6 517.258V526H1585.01V524.207H1584.76C1584.14 525.484 1582.77 526.211 1581.02 526.211ZM1581.9 523.984C1583.64 523.984 1584.9 522.871 1584.9 521.324V520.152L1582.1 520.305C1580.5 520.398 1579.66 521.043 1579.66 522.18C1579.66 523.293 1580.53 523.984 1581.9 523.984ZM1591.88 526V513.168H1594.51V515.359H1594.7C1595.36 513.789 1596.77 512.91 1598.66 512.91C1601.45 512.91 1602.96 514.574 1602.96 517.68V526H1600.23V518.348C1600.23 516.285 1599.39 515.301 1597.63 515.301C1595.8 515.301 1594.61 516.578 1594.61 518.523V526H1591.88ZM1617.88 517.445H1615.21C1614.98 515.98 1613.96 515.172 1612.48 515.172C1610.55 515.172 1609.5 516.555 1609.5 519.074V520.059C1609.5 522.578 1610.55 523.961 1612.48 523.961C1613.98 523.961 1614.97 523.188 1615.21 521.77H1617.88C1617.59 524.641 1615.63 526.258 1612.5 526.258C1608.83 526.258 1606.76 524.125 1606.76 520.305V518.828C1606.76 515.02 1608.83 512.875 1612.5 512.875C1615.64 512.875 1617.57 514.504 1617.88 517.445ZM1630.14 522.52H1632.73C1632.42 524.723 1630.24 526.258 1627.37 526.258C1623.71 526.258 1621.61 524.16 1621.61 520.504V518.5C1621.61 515.137 1623.87 512.91 1627.28 512.91C1630.65 512.91 1632.75 515.125 1632.75 518.688V520.246H1624.29V520.867C1624.29 522.824 1625.5 524.09 1627.36 524.09C1628.78 524.09 1629.87 523.469 1630.14 522.52ZM1627.23 515.066C1625.39 515.066 1624.29 516.32 1624.29 518.418H1630.1C1630.1 516.332 1629.02 515.066 1627.23 515.066ZM1640.74 526.199C1637.8 526.199 1635.97 524.137 1635.97 520.715V518.43C1635.97 515.02 1637.8 512.945 1640.74 512.945C1642.59 512.945 1643.92 513.777 1644.4 515.266H1644.63V508.211H1647.45V526H1644.68V523.891H1644.45C1643.91 525.391 1642.61 526.199 1640.74 526.199ZM1641.73 523.82C1643.55 523.82 1644.69 522.566 1644.69 520.551V518.547C1644.69 516.52 1643.55 515.266 1641.73 515.266C1639.89 515.266 1638.75 516.531 1638.75 518.547V520.551C1638.75 522.566 1639.89 523.82 1641.73 523.82Z" fill="white"/>
<path d="M1484.61 555.48V558H1474.17V541.09H1476.97V555.48H1484.61ZM1493.77 542.32C1492.61 542.32 1491.79 541.559 1491.79 540.457C1491.79 539.355 1492.61 538.594 1493.77 538.594C1494.94 538.594 1495.76 539.355 1495.76 540.457C1495.76 541.559 1494.94 542.32 1493.77 542.32ZM1499.21 558H1488.29V555.82H1492.52V547.348H1488.43V545.168H1495.18V555.82H1499.21V558ZM1507.22 544.957C1509.07 544.957 1510.37 545.777 1510.91 547.277H1511.14V545.168H1513.91V562.301H1511.1V555.902H1510.86C1510.38 557.379 1509.07 558.223 1507.22 558.223C1504.27 558.223 1502.44 556.148 1502.44 552.727V550.441C1502.44 547.031 1504.27 544.957 1507.22 544.957ZM1508.19 547.348C1506.35 547.348 1505.21 548.602 1505.21 550.617V552.633C1505.21 554.637 1506.35 555.902 1508.19 555.902C1510.02 555.902 1511.16 554.648 1511.16 552.633V550.617C1511.16 548.602 1510.02 547.348 1508.19 547.348ZM1528.78 545.168V558H1526.14V555.809H1525.96C1525.3 557.379 1523.88 558.258 1522 558.258C1519.21 558.258 1517.7 556.594 1517.7 553.477V545.168H1520.43V552.82C1520.43 554.883 1521.27 555.855 1523.03 555.855C1524.86 555.855 1526.05 554.59 1526.05 552.645V545.168H1528.78ZM1538.27 542.32C1537.11 542.32 1536.29 541.559 1536.29 540.457C1536.29 539.355 1537.11 538.594 1538.27 538.594C1539.45 538.594 1540.27 539.355 1540.27 540.457C1540.27 541.559 1539.45 542.32 1538.27 542.32ZM1543.72 558H1532.8V555.82H1537.03V547.348H1532.94V545.168H1539.69V555.82H1543.72V558ZM1551.73 558.199C1548.79 558.199 1546.96 556.137 1546.96 552.715V550.43C1546.96 547.02 1548.79 544.945 1551.73 544.945C1553.58 544.945 1554.9 545.777 1555.38 547.266H1555.62V540.211H1558.43V558H1555.66V555.891H1555.43C1554.89 557.391 1553.59 558.199 1551.73 558.199ZM1552.71 555.82C1554.54 555.82 1555.68 554.566 1555.68 552.551V550.547C1555.68 548.52 1554.54 547.266 1552.71 547.266C1550.87 547.266 1549.73 548.531 1549.73 550.547V552.551C1549.73 554.566 1550.87 555.82 1552.71 555.82ZM1567.95 542.32C1566.79 542.32 1565.96 541.559 1565.96 540.457C1565.96 539.355 1566.79 538.594 1567.95 538.594C1569.12 538.594 1569.94 539.355 1569.94 540.457C1569.94 541.559 1569.12 542.32 1567.95 542.32ZM1573.39 558H1562.47V555.82H1566.7V547.348H1562.61V545.168H1569.36V555.82H1573.39V558ZM1580.11 541.582H1582.78V545.25H1587.74V547.453H1582.83V554.051C1582.83 555.188 1583.64 555.82 1585.09 555.82C1585.56 555.82 1587.41 555.809 1587.63 555.785V557.965C1587.42 558 1585.27 558.035 1584.88 558.035C1581.5 558.035 1580.11 556.887 1580.11 554.039V547.453H1576.73V545.25H1580.11V541.582ZM1593.7 562.605C1593.26 562.605 1592.74 562.594 1592.61 562.582V560.32C1592.73 560.344 1593.14 560.355 1593.33 560.355C1594.58 560.355 1595.27 559.875 1595.67 558.668L1595.85 558.094L1591.24 545.168H1594.23L1597.37 555.41H1597.55L1600.69 545.168H1603.58L1599 558.293C1597.89 561.527 1596.54 562.605 1593.7 562.605ZM1632.97 555.48V558H1622.53V541.09H1625.33V555.48H1632.97ZM1641.93 558.258C1638.39 558.258 1636.15 556.055 1636.15 552.562V550.605C1636.15 547.113 1638.39 544.91 1641.93 544.91C1645.46 544.91 1647.7 547.113 1647.7 550.605V552.562C1647.7 556.055 1645.46 558.258 1641.93 558.258ZM1641.93 547.172C1640.03 547.172 1638.84 548.543 1638.84 550.758V552.41C1638.84 554.625 1640.03 555.996 1641.93 555.996C1643.82 555.996 1645.01 554.625 1645.01 552.41V550.758C1645.01 548.543 1643.82 547.172 1641.93 547.172ZM1662.39 549.445H1659.71C1659.49 547.98 1658.47 547.172 1656.98 547.172C1655.06 547.172 1654.01 548.555 1654.01 551.074V552.059C1654.01 554.578 1655.06 555.961 1656.98 555.961C1658.48 555.961 1659.48 555.188 1659.71 553.77H1662.39C1662.09 556.641 1660.14 558.258 1657.01 558.258C1653.34 558.258 1651.27 556.125 1651.27 552.305V550.828C1651.27 547.02 1653.34 544.875 1657.01 544.875C1660.15 544.875 1662.08 546.504 1662.39 549.445ZM1669.75 550.57L1674.67 545.168H1677.84L1673 550.395L1678.17 558H1675L1671.01 552.141L1669.57 553.57V558H1666.85V540.211H1669.57V550.57H1669.75ZM1689.48 554.52H1692.07C1691.77 556.723 1689.59 558.258 1686.71 558.258C1683.06 558.258 1680.95 556.16 1680.95 552.504V550.5C1680.95 547.137 1683.21 544.91 1686.62 544.91C1690 544.91 1692.09 547.125 1692.09 550.688V552.246H1683.63V552.867C1683.63 554.824 1684.84 556.09 1686.7 556.09C1688.12 556.09 1689.21 555.469 1689.48 554.52ZM1686.57 547.066C1684.73 547.066 1683.63 548.32 1683.63 550.418H1689.45C1689.45 548.332 1688.37 547.066 1686.57 547.066ZM1700.92 552.281V555.961H1704.74V558H1695.8V555.961H1698.29V547.207H1695.55V545.168H1700.93V548.449H1701.33C1701.86 545.977 1703.29 544.828 1705.72 544.828C1706.45 544.828 1707.12 544.922 1707.56 545.098V548.062C1706.99 547.84 1706.14 547.699 1705.44 547.699C1702.48 547.699 1700.92 549.316 1700.92 552.281ZM1524.55 585.359H1527.26C1527.42 586.988 1528.73 587.949 1530.8 587.949C1532.79 587.949 1534.07 586.953 1534.07 585.395C1534.07 584.117 1533.22 583.391 1531.14 582.898L1529.51 582.512C1526.41 581.773 1524.94 580.215 1524.94 577.73C1524.94 574.695 1527.21 572.75 1530.76 572.75C1534.16 572.75 1536.47 574.672 1536.57 577.602H1533.88C1533.73 576.055 1532.57 575.141 1530.79 575.141C1528.91 575.141 1527.77 576.02 1527.77 577.484C1527.77 578.785 1528.59 579.523 1530.57 579.98L1532.2 580.367C1535.47 581.129 1536.88 582.582 1536.88 585.148C1536.88 588.359 1534.54 590.34 1530.75 590.34C1527.05 590.34 1524.69 588.453 1524.55 585.359ZM1545.49 590.258C1541.95 590.258 1539.71 588.055 1539.71 584.562V582.605C1539.71 579.113 1541.95 576.91 1545.49 576.91C1549.03 576.91 1551.27 579.113 1551.27 582.605V584.562C1551.27 588.055 1549.03 590.258 1545.49 590.258ZM1545.49 579.172C1543.59 579.172 1542.41 580.543 1542.41 582.758V584.41C1542.41 586.625 1543.59 587.996 1545.49 587.996C1547.39 587.996 1548.57 586.625 1548.57 584.41V582.758C1548.57 580.543 1547.39 579.172 1545.49 579.172ZM1565.98 590H1555.05V587.82H1559.26V574.391H1555.2V572.211H1561.98V587.82H1565.98V590ZM1580.71 577.168V590H1578.07V587.809H1577.88C1577.23 589.379 1575.81 590.258 1573.92 590.258C1571.13 590.258 1569.62 588.594 1569.62 585.477V577.168H1572.35V584.82C1572.35 586.883 1573.2 587.855 1574.95 587.855C1576.78 587.855 1577.98 586.59 1577.98 584.645V577.168H1580.71ZM1587.53 573.582H1590.2V577.25H1595.16V579.453H1590.25V586.051C1590.25 587.188 1591.05 587.82 1592.51 587.82C1592.98 587.82 1594.83 587.809 1595.05 587.785V589.965C1594.84 590 1592.68 590.035 1592.3 590.035C1588.92 590.035 1587.53 588.887 1587.53 586.039V579.453H1584.15V577.25H1587.53V573.582ZM1605.04 574.32C1603.88 574.32 1603.05 573.559 1603.05 572.457C1603.05 571.355 1603.88 570.594 1605.04 570.594C1606.21 570.594 1607.03 571.355 1607.03 572.457C1607.03 573.559 1606.21 574.32 1605.04 574.32ZM1610.48 590H1599.56V587.82H1603.79V579.348H1599.7V577.168H1606.45V587.82H1610.48V590ZM1619.67 590.258C1616.13 590.258 1613.89 588.055 1613.89 584.562V582.605C1613.89 579.113 1616.13 576.91 1619.67 576.91C1623.21 576.91 1625.45 579.113 1625.45 582.605V584.562C1625.45 588.055 1623.21 590.258 1619.67 590.258ZM1619.67 579.172C1617.77 579.172 1616.59 580.543 1616.59 582.758V584.41C1616.59 586.625 1617.77 587.996 1619.67 587.996C1621.57 587.996 1622.75 586.625 1622.75 584.41V582.758C1622.75 580.543 1621.57 579.172 1619.67 579.172ZM1628.96 590V577.168H1631.6V579.359H1631.79C1632.45 577.789 1633.86 576.91 1635.75 576.91C1638.54 576.91 1640.05 578.574 1640.05 581.68V590H1637.32V582.348C1637.32 580.285 1636.48 579.301 1634.72 579.301C1632.89 579.301 1631.7 580.578 1631.7 582.523V590H1628.96ZM1644.35 580.801C1644.35 578.41 1646.32 576.887 1649.36 576.887C1652.3 576.887 1654.16 578.246 1654.34 580.555H1651.76C1651.57 579.594 1650.64 578.996 1649.32 578.996C1647.95 578.996 1647.05 579.629 1647.05 580.59C1647.05 581.41 1647.63 581.879 1649.03 582.184L1650.94 582.594C1653.5 583.145 1654.64 584.234 1654.64 586.156C1654.64 588.652 1652.59 590.258 1649.37 590.258C1646.23 590.258 1644.23 588.863 1644.05 586.543H1646.75C1646.99 587.551 1647.96 588.125 1649.41 588.125C1650.9 588.125 1651.84 587.469 1651.84 586.473C1651.84 585.629 1651.3 585.195 1649.84 584.879L1647.91 584.457C1645.55 583.93 1644.35 582.711 1644.35 580.801Z" fill="#DCB976"/>
</g>
<path d="M960 549H840" stroke="#272727" stroke-width="2"/>
<path d="M960 549H840" stroke="#272727" stroke-width="2"/>
<path d="M960 549H840" stroke="#272727" stroke-width="2"/>
<path d="M960 549H840" stroke="#272727" stroke-width="2"/>
<path d="M900 554.773L905.774 549L900 543.226L894.226 549L900 554.773ZM901 549V320H899V549H901Z" fill="url(#paint0_linear_35_401)"/>
<g filter="url(#filter5_b_35_401)">
<rect x="60" y="776" width="240" height="90" rx="15" fill="#353535" fill-opacity="0.15"/>
<rect x="60.5" y="776.5" width="239" height="89" rx="14.5" stroke="#272727"/>
<path d="M116.398 824.109V822.867H112.953V820.676H119.27V824.215C119.27 827.602 116.832 829.84 113.223 829.84C109.133 829.84 106.754 827.215 106.754 822.68V819.41C106.754 814.875 109.133 812.25 113.223 812.25C116.879 812.25 119.176 814.453 119.258 818.051H116.398C116.305 816.094 115.016 814.805 113.164 814.805C110.832 814.805 109.625 816.375 109.625 819.41V822.68C109.625 825.715 110.844 827.285 113.199 827.285C115.18 827.285 116.398 826.09 116.398 824.109ZM127.754 829.758C124.215 829.758 121.977 827.555 121.977 824.062V822.105C121.977 818.613 124.215 816.41 127.754 816.41C131.293 816.41 133.531 818.613 133.531 822.105V824.062C133.531 827.555 131.293 829.758 127.754 829.758ZM127.754 818.672C125.855 818.672 124.672 820.043 124.672 822.258V823.91C124.672 826.125 125.855 827.496 127.754 827.496C129.652 827.496 130.836 826.125 130.836 823.91V822.258C130.836 820.043 129.652 818.672 127.754 818.672ZM136.496 816.668H139.426L142.531 826.793H142.719L145.789 816.668H148.684L144.137 829.5H141.066L136.496 816.668ZM160.473 826.02H163.062C162.758 828.223 160.578 829.758 157.707 829.758C154.051 829.758 151.941 827.66 151.941 824.004V822C151.941 818.637 154.203 816.41 157.613 816.41C160.988 816.41 163.086 818.625 163.086 822.188V823.746H154.625V824.367C154.625 826.324 155.832 827.59 157.695 827.59C159.113 827.59 160.203 826.969 160.473 826.02ZM157.566 818.566C155.727 818.566 154.625 819.82 154.625 821.918H160.438C160.438 819.832 159.359 818.566 157.566 818.566ZM171.91 823.781V827.461H175.73V829.5H166.789V827.461H169.285V818.707H166.543V816.668H171.922V819.949H172.32C172.848 817.477 174.277 816.328 176.715 816.328C177.441 816.328 178.109 816.422 178.555 816.598V819.562C177.98 819.34 177.137 819.199 176.434 819.199C173.469 819.199 171.91 820.816 171.91 823.781ZM181.555 829.5V816.668H184.191V818.859H184.379C185.035 817.289 186.453 816.41 188.34 816.41C191.129 816.41 192.641 818.074 192.641 821.18V829.5H189.91V821.848C189.91 819.785 189.066 818.801 187.309 818.801C185.48 818.801 184.285 820.078 184.285 822.023V829.5H181.555ZM200.375 829.711C197.938 829.711 196.309 828.164 196.309 825.844C196.309 823.547 197.973 822.188 201.043 822L204.254 821.812V820.734C204.254 819.41 203.398 818.66 201.898 818.66C200.645 818.66 199.73 819.199 199.449 820.137H196.777C197.012 817.922 199.086 816.457 201.969 816.457C205.145 816.457 206.949 818.016 206.949 820.758V829.5H204.359V827.707H204.113C203.492 828.984 202.121 829.711 200.375 829.711ZM201.254 827.484C202.988 827.484 204.254 826.371 204.254 824.824V823.652L201.453 823.805C199.848 823.898 199.016 824.543 199.016 825.68C199.016 826.793 199.883 827.484 201.254 827.484ZM211.227 829.5V816.668H213.863V818.859H214.051C214.707 817.289 216.125 816.41 218.012 816.41C220.801 816.41 222.312 818.074 222.312 821.18V829.5H219.582V821.848C219.582 819.785 218.738 818.801 216.98 818.801C215.152 818.801 213.957 820.078 213.957 822.023V829.5H211.227ZM237.23 820.945H234.559C234.336 819.48 233.316 818.672 231.828 818.672C229.906 818.672 228.852 820.055 228.852 822.574V823.559C228.852 826.078 229.906 827.461 231.828 827.461C233.328 827.461 234.324 826.688 234.559 825.27H237.23C236.938 828.141 234.98 829.758 231.852 829.758C228.184 829.758 226.109 827.625 226.109 823.805V822.328C226.109 818.52 228.184 816.375 231.852 816.375C234.992 816.375 236.926 818.004 237.23 820.945ZM249.488 826.02H252.078C251.773 828.223 249.594 829.758 246.723 829.758C243.066 829.758 240.957 827.66 240.957 824.004V822C240.957 818.637 243.219 816.41 246.629 816.41C250.004 816.41 252.102 818.625 252.102 822.188V823.746H243.641V824.367C243.641 826.324 244.848 827.59 246.711 827.59C248.129 827.59 249.219 826.969 249.488 826.02ZM246.582 818.566C244.742 818.566 243.641 819.82 243.641 821.918H249.453C249.453 819.832 248.375 818.566 246.582 818.566Z" fill="white"/>
</g>
<g filter="url(#filter6_b_35_401)">
<rect x="750" y="231" width="301" height="88" rx="14" stroke="#DCB976" stroke-width="2"/>
<path d="M801.305 283.5H791.531V281.062H795V269.027H791.531V266.59H801.305V269.027H797.836V281.062H801.305V283.5ZM805.711 283.5V270.668H808.348V272.859H808.535C809.191 271.289 810.609 270.41 812.496 270.41C815.285 270.41 816.797 272.074 816.797 275.18V283.5H814.066V275.848C814.066 273.785 813.223 272.801 811.465 272.801C809.637 272.801 808.441 274.078 808.441 276.023V283.5H805.711ZM819.996 270.668H822.926L826.031 280.793H826.219L829.289 270.668H832.184L827.637 283.5H824.566L819.996 270.668ZM843.973 280.02H846.562C846.258 282.223 844.078 283.758 841.207 283.758C837.551 283.758 835.441 281.66 835.441 278.004V276C835.441 272.637 837.703 270.41 841.113 270.41C844.488 270.41 846.586 272.625 846.586 276.188V277.746H838.125V278.367C838.125 280.324 839.332 281.59 841.195 281.59C842.613 281.59 843.703 280.969 843.973 280.02ZM841.066 272.566C839.227 272.566 838.125 273.82 838.125 275.918H843.938C843.938 273.832 842.859 272.566 841.066 272.566ZM850.77 274.301C850.77 271.91 852.738 270.387 855.773 270.387C858.715 270.387 860.578 271.746 860.754 274.055H858.176C857.988 273.094 857.062 272.496 855.738 272.496C854.367 272.496 853.465 273.129 853.465 274.09C853.465 274.91 854.051 275.379 855.445 275.684L857.355 276.094C859.922 276.645 861.059 277.734 861.059 279.656C861.059 282.152 859.008 283.758 855.785 283.758C852.645 283.758 850.652 282.363 850.465 280.043H853.172C853.406 281.051 854.379 281.625 855.832 281.625C857.32 281.625 858.258 280.969 858.258 279.973C858.258 279.129 857.719 278.695 856.254 278.379L854.332 277.957C851.965 277.43 850.77 276.211 850.77 274.301ZM868.125 267.082H870.797V270.75H875.754V272.953H870.844V279.551C870.844 280.688 871.652 281.32 873.105 281.32C873.574 281.32 875.426 281.309 875.648 281.285V283.465C875.438 283.5 873.281 283.535 872.895 283.535C869.52 283.535 868.125 282.387 868.125 279.539V272.953H864.75V270.75H868.125V267.082ZM891.797 273.75V283.5H889.453V274.617C889.453 273.445 888.949 272.777 888.082 272.777C887.18 272.777 886.617 273.539 886.617 274.746V283.5H884.285V274.617C884.285 273.434 883.793 272.777 882.914 272.777C882 272.777 881.414 273.539 881.414 274.746V283.5H879.07V270.668H881.461V272.59H881.754C882.047 271.195 882.949 270.41 884.18 270.41C885.375 270.41 886.195 271.172 886.465 272.52H886.758C887.051 271.207 888 270.41 889.254 270.41C890.918 270.41 891.797 271.57 891.797 273.75ZM903.316 280.02H905.906C905.602 282.223 903.422 283.758 900.551 283.758C896.895 283.758 894.785 281.66 894.785 278.004V276C894.785 272.637 897.047 270.41 900.457 270.41C903.832 270.41 905.93 272.625 905.93 276.188V277.746H897.469V278.367C897.469 280.324 898.676 281.59 900.539 281.59C901.957 281.59 903.047 280.969 903.316 280.02ZM900.41 272.566C898.57 272.566 897.469 273.82 897.469 275.918H903.281C903.281 273.832 902.203 272.566 900.41 272.566ZM909.562 283.5V270.668H912.199V272.859H912.387C913.043 271.289 914.461 270.41 916.348 270.41C919.137 270.41 920.648 272.074 920.648 275.18V283.5H917.918V275.848C917.918 273.785 917.074 272.801 915.316 272.801C913.488 272.801 912.293 274.078 912.293 276.023V283.5H909.562ZM927.469 267.082H930.141V270.75H935.098V272.953H930.188V279.551C930.188 280.688 930.996 281.32 932.449 281.32C932.918 281.32 934.77 281.309 934.992 281.285V283.465C934.781 283.5 932.625 283.535 932.238 283.535C928.863 283.535 927.469 282.387 927.469 279.539V272.953H924.094V270.75H927.469V267.082ZM954.164 266.59H960.129C963.574 266.59 965.789 268.793 965.789 272.227C965.789 275.637 963.527 277.84 960.012 277.84H957V283.5H954.164V266.59ZM957 268.957V275.473H959.426C961.711 275.473 962.918 274.359 962.918 272.215C962.918 270.07 961.711 268.957 959.426 268.957H957ZM974.449 283.758C970.91 283.758 968.672 281.555 968.672 278.062V276.105C968.672 272.613 970.91 270.41 974.449 270.41C977.988 270.41 980.227 272.613 980.227 276.105V278.062C980.227 281.555 977.988 283.758 974.449 283.758ZM974.449 272.672C972.551 272.672 971.367 274.043 971.367 276.258V277.91C971.367 280.125 972.551 281.496 974.449 281.496C976.348 281.496 977.531 280.125 977.531 277.91V276.258C977.531 274.043 976.348 272.672 974.449 272.672ZM989.285 283.758C985.746 283.758 983.508 281.555 983.508 278.062V276.105C983.508 272.613 985.746 270.41 989.285 270.41C992.824 270.41 995.062 272.613 995.062 276.105V278.062C995.062 281.555 992.824 283.758 989.285 283.758ZM989.285 272.672C987.387 272.672 986.203 274.043 986.203 276.258V277.91C986.203 280.125 987.387 281.496 989.285 281.496C991.184 281.496 992.367 280.125 992.367 277.91V276.258C992.367 274.043 991.184 272.672 989.285 272.672ZM1009.77 283.5H998.848V281.32H1003.05V267.891H998.988V265.711H1005.77V281.32H1009.77V283.5Z" fill="#DCB976"/>
</g>
<g filter="url(#filter7_b_35_401)">
<rect x="1177" y="230" width="244" height="90" rx="15" fill="#353535" fill-opacity="0.15"/>
<rect x="1177.5" y="230.5" width="243" height="89" rx="14.5" stroke="#272727"/>
<path d="M1218.59 266.59H1223.75C1228.51 266.59 1230.96 269.438 1230.96 274.957C1230.96 280.617 1228.53 283.5 1223.75 283.5H1218.59V266.59ZM1221.43 269.062V281.027H1223.4C1226.59 281.027 1228.06 279.141 1228.06 275.004C1228.06 270.984 1226.56 269.062 1223.4 269.062H1221.43ZM1242.3 280.02H1244.89C1244.59 282.223 1242.41 283.758 1239.54 283.758C1235.88 283.758 1233.77 281.66 1233.77 278.004V276C1233.77 272.637 1236.03 270.41 1239.44 270.41C1242.82 270.41 1244.91 272.625 1244.91 276.188V277.746H1236.45V278.367C1236.45 280.324 1237.66 281.59 1239.52 281.59C1240.94 281.59 1242.03 280.969 1242.3 280.02ZM1239.39 272.566C1237.55 272.566 1236.45 273.82 1236.45 275.918H1242.27C1242.27 273.832 1241.19 272.566 1239.39 272.566ZM1248 270.668H1250.93L1254.03 280.793H1254.22L1257.29 270.668H1260.18L1255.64 283.5H1252.57L1248 270.668ZM1271.97 280.02H1274.56C1274.26 282.223 1272.08 283.758 1269.21 283.758C1265.55 283.758 1263.44 281.66 1263.44 278.004V276C1263.44 272.637 1265.7 270.41 1269.11 270.41C1272.49 270.41 1274.59 272.625 1274.59 276.188V277.746H1266.12V278.367C1266.12 280.324 1267.33 281.59 1269.2 281.59C1270.61 281.59 1271.7 280.969 1271.97 280.02ZM1269.07 272.566C1267.23 272.566 1266.12 273.82 1266.12 275.918H1271.94C1271.94 273.832 1270.86 272.566 1269.07 272.566ZM1289.41 283.5H1278.49V281.32H1282.7V267.891H1278.63V265.711H1285.41V281.32H1289.41V283.5ZM1298.6 283.758C1295.06 283.758 1292.82 281.555 1292.82 278.062V276.105C1292.82 272.613 1295.06 270.41 1298.6 270.41C1302.14 270.41 1304.38 272.613 1304.38 276.105V278.062C1304.38 281.555 1302.14 283.758 1298.6 283.758ZM1298.6 272.672C1296.7 272.672 1295.52 274.043 1295.52 276.258V277.91C1295.52 280.125 1296.7 281.496 1298.6 281.496C1300.5 281.496 1301.68 280.125 1301.68 277.91V276.258C1301.68 274.043 1300.5 272.672 1298.6 272.672ZM1314.62 270.457C1317.57 270.457 1319.4 272.531 1319.4 275.941V278.227C1319.4 281.648 1317.57 283.723 1314.62 283.723C1312.77 283.723 1311.45 282.879 1310.97 281.402H1310.74V287.801H1307.93V270.668H1310.69V272.777H1310.93C1311.46 271.277 1312.77 270.457 1314.62 270.457ZM1313.64 272.848C1311.82 272.848 1310.68 274.102 1310.68 276.117V278.133C1310.68 280.148 1311.82 281.402 1313.64 281.402C1315.48 281.402 1316.62 280.137 1316.62 278.133V276.117C1316.62 274.102 1315.48 272.848 1313.64 272.848ZM1334.63 273.75V283.5H1332.29V274.617C1332.29 273.445 1331.79 272.777 1330.92 272.777C1330.02 272.777 1329.45 273.539 1329.45 274.746V283.5H1327.12V274.617C1327.12 273.434 1326.63 272.777 1325.75 272.777C1324.84 272.777 1324.25 273.539 1324.25 274.746V283.5H1321.91V270.668H1324.3V272.59H1324.59C1324.88 271.195 1325.79 270.41 1327.02 270.41C1328.21 270.41 1329.03 271.172 1329.3 272.52H1329.59C1329.89 271.207 1330.84 270.41 1332.09 270.41C1333.75 270.41 1334.63 271.57 1334.63 273.75ZM1346.15 280.02H1348.74C1348.44 282.223 1346.26 283.758 1343.39 283.758C1339.73 283.758 1337.62 281.66 1337.62 278.004V276C1337.62 272.637 1339.88 270.41 1343.29 270.41C1346.67 270.41 1348.77 272.625 1348.77 276.188V277.746H1340.3V278.367C1340.3 280.324 1341.51 281.59 1343.38 281.59C1344.79 281.59 1345.88 280.969 1346.15 280.02ZM1343.25 272.566C1341.41 272.566 1340.3 273.82 1340.3 275.918H1346.12C1346.12 273.832 1345.04 272.566 1343.25 272.566ZM1352.4 283.5V270.668H1355.04V272.859H1355.22C1355.88 271.289 1357.3 270.41 1359.18 270.41C1361.97 270.41 1363.48 272.074 1363.48 275.18V283.5H1360.75V275.848C1360.75 273.785 1359.91 272.801 1358.15 272.801C1356.32 272.801 1355.13 274.078 1355.13 276.023V283.5H1352.4ZM1370.3 267.082H1372.98V270.75H1377.93V272.953H1373.02V279.551C1373.02 280.688 1373.83 281.32 1375.29 281.32C1375.75 281.32 1377.61 281.309 1377.83 281.285V283.465C1377.62 283.5 1375.46 283.535 1375.07 283.535C1371.7 283.535 1370.3 282.387 1370.3 279.539V272.953H1366.93V270.75H1370.3V267.082Z" fill="white"/>
</g>
<g filter="url(#filter8_b_35_401)">
<rect x="1546" y="230" width="214" height="90" rx="15" fill="#353535" fill-opacity="0.15"/>
<rect x="1546.5" y="230.5" width="213" height="89" rx="14.5" stroke="#272727"/>
<path d="M1589.6 277.547V283.5H1587.17V266.59H1590.18L1593.34 276.609H1593.51L1596.64 266.59H1599.66V283.5H1597.24V277.547L1597.54 270.75H1597.33L1594.43 279.527H1592.41L1589.5 270.75H1589.29L1589.6 277.547ZM1606.7 283.711C1604.26 283.711 1602.63 282.164 1602.63 279.844C1602.63 277.547 1604.29 276.188 1607.36 276L1610.57 275.812V274.734C1610.57 273.41 1609.72 272.66 1608.22 272.66C1606.96 272.66 1606.05 273.199 1605.77 274.137H1603.1C1603.33 271.922 1605.41 270.457 1608.29 270.457C1611.46 270.457 1613.27 272.016 1613.27 274.758V283.5H1610.68V281.707H1610.43C1609.81 282.984 1608.44 283.711 1606.7 283.711ZM1607.57 281.484C1609.31 281.484 1610.57 280.371 1610.57 278.824V277.652L1607.77 277.805C1606.17 277.898 1605.34 278.543 1605.34 279.68C1605.34 280.793 1606.2 281.484 1607.57 281.484ZM1622.74 277.781V281.461H1626.56V283.5H1617.62V281.461H1620.11V272.707H1617.37V270.668H1622.75V273.949H1623.15C1623.68 271.477 1625.11 270.328 1627.54 270.328C1628.27 270.328 1628.94 270.422 1629.38 270.598V273.562C1628.81 273.34 1627.96 273.199 1627.26 273.199C1624.3 273.199 1622.74 274.816 1622.74 277.781ZM1636.07 276.07L1641 270.668H1644.17L1639.33 275.895L1644.5 283.5H1641.32L1637.34 277.641L1635.9 279.07V283.5H1633.18V265.711H1635.9V276.07H1636.07ZM1655.81 280.02H1658.4C1658.09 282.223 1655.91 283.758 1653.04 283.758C1649.39 283.758 1647.28 281.66 1647.28 278.004V276C1647.28 272.637 1649.54 270.41 1652.95 270.41C1656.32 270.41 1658.42 272.625 1658.42 276.188V277.746H1649.96V278.367C1649.96 280.324 1651.17 281.59 1653.03 281.59C1654.45 281.59 1655.54 280.969 1655.81 280.02ZM1652.9 272.566C1651.06 272.566 1649.96 273.82 1649.96 275.918H1655.77C1655.77 273.832 1654.7 272.566 1652.9 272.566ZM1665.12 267.082H1667.8V270.75H1672.75V272.953H1667.84V279.551C1667.84 280.688 1668.65 281.32 1670.11 281.32C1670.57 281.32 1672.43 281.309 1672.65 281.285V283.465C1672.44 283.5 1670.28 283.535 1669.89 283.535C1666.52 283.535 1665.12 282.387 1665.12 279.539V272.953H1661.75V270.75H1665.12V267.082ZM1682.63 267.82C1681.47 267.82 1680.65 267.059 1680.65 265.957C1680.65 264.855 1681.47 264.094 1682.63 264.094C1683.8 264.094 1684.62 264.855 1684.62 265.957C1684.62 267.059 1683.8 267.82 1682.63 267.82ZM1688.08 283.5H1677.16V281.32H1681.39V272.848H1677.3V270.668H1684.05V281.32H1688.08V283.5ZM1691.73 283.5V270.668H1694.36V272.859H1694.55C1695.21 271.289 1696.62 270.41 1698.51 270.41C1701.3 270.41 1702.81 272.074 1702.81 275.18V283.5H1700.08V275.848C1700.08 273.785 1699.24 272.801 1697.48 272.801C1695.65 272.801 1694.46 274.078 1694.46 276.023V283.5H1691.73ZM1711.74 288.328C1708.55 288.328 1706.45 286.957 1706.21 284.742H1708.88C1709.12 285.668 1710.25 286.266 1711.78 286.266C1713.78 286.266 1714.87 285.305 1714.87 283.512V281.191H1714.64C1714.18 282.609 1712.7 283.512 1710.82 283.512C1707.85 283.512 1706.01 281.414 1706.01 278.027V275.93C1706.01 272.52 1707.88 270.445 1710.92 270.445C1712.79 270.445 1714.21 271.336 1714.68 272.766H1714.92V270.668H1717.6V283.488C1717.6 286.5 1715.39 288.328 1711.74 288.328ZM1708.79 277.852C1708.79 279.855 1709.97 281.133 1711.82 281.133C1713.66 281.133 1714.85 279.855 1714.85 277.852V276.047C1714.85 274.043 1713.66 272.766 1711.82 272.766C1709.97 272.766 1708.79 274.043 1708.79 276.047V277.852Z" fill="white"/>
</g>
<g filter="url(#filter9_b_35_401)">
<rect x="961" y="777" width="338" height="88" rx="14" stroke="#DCB976" stroke-width="2"/>
<path d="M1049.97 812.59H1055.93C1059.38 812.59 1061.59 814.793 1061.59 818.227C1061.59 821.637 1059.33 823.84 1055.82 823.84H1052.8V829.5H1049.97V812.59ZM1052.8 814.957V821.473H1055.23C1057.52 821.473 1058.72 820.359 1058.72 818.215C1058.72 816.07 1057.52 814.957 1055.23 814.957H1052.8ZM1069.9 823.781V827.461H1073.72V829.5H1064.78V827.461H1067.28V818.707H1064.54V816.668H1069.91V819.949H1070.31C1070.84 817.477 1072.27 816.328 1074.71 816.328C1075.43 816.328 1076.1 816.422 1076.55 816.598V819.562C1075.97 819.34 1075.13 819.199 1074.43 819.199C1071.46 819.199 1069.9 820.816 1069.9 823.781ZM1085.09 829.758C1081.55 829.758 1079.31 827.555 1079.31 824.062V822.105C1079.31 818.613 1081.55 816.41 1085.09 816.41C1088.63 816.41 1090.87 818.613 1090.87 822.105V824.062C1090.87 827.555 1088.63 829.758 1085.09 829.758ZM1085.09 818.672C1083.19 818.672 1082.01 820.043 1082.01 822.258V823.91C1082.01 826.125 1083.19 827.496 1085.09 827.496C1086.99 827.496 1088.17 826.125 1088.17 823.91V822.258C1088.17 820.043 1086.99 818.672 1085.09 818.672ZM1097.85 829.5V818.953H1094.42V816.75H1097.85V815.684C1097.85 812.953 1099.28 811.828 1102.63 811.828C1103.11 811.828 1105.62 811.875 1105.89 811.91V813.961C1105.53 813.926 1103.16 813.891 1102.69 813.891C1101.26 813.891 1100.52 814.453 1100.52 815.543V816.75H1105.89V818.953H1100.57V829.5H1097.85ZM1114.96 813.82C1113.8 813.82 1112.98 813.059 1112.98 811.957C1112.98 810.855 1113.8 810.094 1114.96 810.094C1116.13 810.094 1116.95 810.855 1116.95 811.957C1116.95 813.059 1116.13 813.82 1114.96 813.82ZM1120.41 829.5H1109.49V827.32H1113.72V818.848H1109.63V816.668H1116.38V827.32H1120.41V829.5ZM1127.12 813.082H1129.8V816.75H1134.75V818.953H1129.84V825.551C1129.84 826.688 1130.65 827.32 1132.11 827.32C1132.57 827.32 1134.43 827.309 1134.65 827.285V829.465C1134.44 829.5 1132.28 829.535 1131.89 829.535C1128.52 829.535 1127.12 828.387 1127.12 825.539V818.953H1123.75V816.75H1127.12V813.082ZM1153.82 812.59H1159.79C1163.23 812.59 1165.45 814.793 1165.45 818.227C1165.45 821.637 1163.18 823.84 1159.67 823.84H1156.66V829.5H1153.82V812.59ZM1156.66 814.957V821.473H1159.08C1161.37 821.473 1162.57 820.359 1162.57 818.215C1162.57 816.07 1161.37 814.957 1159.08 814.957H1156.66ZM1174.11 829.758C1170.57 829.758 1168.33 827.555 1168.33 824.062V822.105C1168.33 818.613 1170.57 816.41 1174.11 816.41C1177.64 816.41 1179.88 818.613 1179.88 822.105V824.062C1179.88 827.555 1177.64 829.758 1174.11 829.758ZM1174.11 818.672C1172.21 818.672 1171.02 820.043 1171.02 822.258V823.91C1171.02 826.125 1172.21 827.496 1174.11 827.496C1176 827.496 1177.19 826.125 1177.19 823.91V822.258C1177.19 820.043 1176 818.672 1174.11 818.672ZM1188.94 829.758C1185.4 829.758 1183.16 827.555 1183.16 824.062V822.105C1183.16 818.613 1185.4 816.41 1188.94 816.41C1192.48 816.41 1194.72 818.613 1194.72 822.105V824.062C1194.72 827.555 1192.48 829.758 1188.94 829.758ZM1188.94 818.672C1187.04 818.672 1185.86 820.043 1185.86 822.258V823.91C1185.86 826.125 1187.04 827.496 1188.94 827.496C1190.84 827.496 1192.02 826.125 1192.02 823.91V822.258C1192.02 820.043 1190.84 818.672 1188.94 818.672ZM1209.43 829.5H1198.5V827.32H1202.71V813.891H1198.64V811.711H1205.43V827.32H1209.43V829.5Z" fill="#DCB976"/>
</g>
<rect x="627.5" y="60" width="327" height="70" rx="15" fill="#DCB976" fill-opacity="0.05"/>
<path d="M687.819 107.505C682.383 107.505 679.339 103.11 679.339 95.2487C679.339 87.4036 682.383 83.0091 687.819 83.0091C693.239 83.0091 696.283 87.4036 696.283 95.2487C696.283 103.11 693.239 107.505 687.819 107.505ZM683.197 95.2487C683.197 95.737 683.213 96.209 683.229 96.6484L691.888 90.3008C691.188 87.6641 689.805 86.2969 687.819 86.2969C684.808 86.2969 683.197 89.4219 683.197 95.2487ZM687.819 104.217C690.814 104.217 692.425 101.092 692.425 95.2487C692.425 94.7767 692.409 94.3047 692.393 93.8652L683.75 100.229C684.45 102.85 685.817 104.217 687.819 104.217ZM708.457 100.652H708.213L704.29 107H700.221L706.048 98.1296L700.173 89.1777H704.567L708.376 95.4928H708.62L712.428 89.1777H716.611L710.752 97.9668L716.644 107H712.38L708.457 100.652ZM737.184 103.501V107H722.682V83.5137H726.572V103.501H737.184ZM749.896 85.2227C748.285 85.2227 747.145 84.1647 747.145 82.6348C747.145 81.1048 748.285 80.0469 749.896 80.0469C751.523 80.0469 752.663 81.1048 752.663 82.6348C752.663 84.1647 751.523 85.2227 749.896 85.2227ZM757.464 107H742.295V103.973H748.171V92.2051H742.49V89.1777H751.865V103.973H757.464V107ZM768.581 88.8848C771.152 88.8848 772.959 90.0241 773.708 92.1074H774.033V89.1777H777.874V112.973H773.968V104.087H773.643C772.975 106.137 771.152 107.309 768.581 107.309C764.479 107.309 761.94 104.428 761.94 99.6758V96.502C761.94 91.7656 764.479 88.8848 768.581 88.8848ZM769.932 92.2051C767.376 92.2051 765.798 93.9466 765.798 96.7461V99.5456C765.798 102.329 767.376 104.087 769.932 104.087C772.471 104.087 774.049 102.345 774.049 99.5456V96.7461C774.049 93.9466 772.471 92.2051 769.932 92.2051ZM798.529 89.1777V107H794.867V103.956H794.606C793.695 106.137 791.725 107.358 789.105 107.358C785.231 107.358 783.132 105.047 783.132 100.717V89.1777H786.924V99.806C786.924 102.671 788.096 104.021 790.537 104.021C793.076 104.021 794.736 102.264 794.736 99.5618V89.1777H798.529ZM811.712 85.2227C810.101 85.2227 808.962 84.1647 808.962 82.6348C808.962 81.1048 810.101 80.0469 811.712 80.0469C813.34 80.0469 814.479 81.1048 814.479 82.6348C814.479 84.1647 813.34 85.2227 811.712 85.2227ZM819.281 107H804.111V103.973H809.987V92.2051H804.307V89.1777H813.682V103.973H819.281V107ZM830.397 107.277C826.312 107.277 823.773 104.412 823.773 99.6595V96.4857C823.773 91.7493 826.312 88.8685 830.397 88.8685C832.969 88.8685 834.808 90.0241 835.475 92.0911H835.801V82.293H839.707V107H835.866V104.07H835.54C834.792 106.154 832.985 107.277 830.397 107.277ZM831.764 103.973C834.303 103.973 835.882 102.231 835.882 99.4316V96.6484C835.882 93.8327 834.303 92.0911 831.764 92.0911C829.209 92.0911 827.63 93.849 827.63 96.6484V99.4316C827.63 102.231 829.209 103.973 831.764 103.973ZM852.923 85.2227C851.312 85.2227 850.173 84.1647 850.173 82.6348C850.173 81.1048 851.312 80.0469 852.923 80.0469C854.551 80.0469 855.69 81.1048 855.69 82.6348C855.69 84.1647 854.551 85.2227 852.923 85.2227ZM860.492 107H845.322V103.973H851.198V92.2051H845.518V89.1777H854.893V103.973H860.492V107ZM869.818 84.1973H873.529V89.2917H880.413V92.3516H873.594V101.515C873.594 103.094 874.717 103.973 876.735 103.973C877.386 103.973 879.958 103.956 880.267 103.924V106.951C879.974 107 876.979 107.049 876.442 107.049C871.755 107.049 869.818 105.454 869.818 101.499V92.3516H865.13V89.2917H869.818V84.1973ZM888.698 113.396C888.079 113.396 887.363 113.38 887.184 113.364V110.223C887.347 110.255 887.917 110.271 888.177 110.271C889.919 110.271 890.879 109.604 891.432 107.928L891.676 107.13L885.28 89.1777H889.43L893.792 103.403H894.036L898.398 89.1777H902.419L896.055 107.407C894.508 111.899 892.637 113.396 888.698 113.396Z" fill="#DCB976"/>
<path d="M977.487 111.5V79.0889H998.062V83.4463H982.519V92.8799H997.23V97.1025H982.519V107.143H998.062V111.5H977.487ZM1012.84 111.972C1010.55 111.972 1008.56 111.47 1006.87 110.467C1005.19 109.464 1003.89 108.041 1002.98 106.199C1002.08 104.357 1001.63 102.179 1001.63 99.6631V99.6406C1001.63 97.14 1002.09 94.9762 1003 93.1494C1003.93 91.3226 1005.23 89.915 1006.91 88.9268C1008.59 87.9235 1010.55 87.4219 1012.8 87.4219C1014.82 87.4219 1016.56 87.8112 1018.03 88.5898C1019.51 89.3535 1020.67 90.3717 1021.51 91.6445C1022.35 92.9173 1022.84 94.2949 1022.97 95.7773L1022.99 95.957H1018.34L1018.3 95.7549C1018.04 94.6019 1017.46 93.6061 1016.55 92.7676C1015.65 91.9141 1014.41 91.4873 1012.82 91.4873C1011.58 91.4873 1010.48 91.8242 1009.54 92.498C1008.61 93.1569 1007.88 94.1003 1007.36 95.3281C1006.85 96.556 1006.6 98.0085 1006.6 99.6855V99.708C1006.6 101.43 1006.86 102.905 1007.38 104.133C1007.91 105.346 1008.63 106.274 1009.56 106.918C1010.5 107.562 1011.61 107.884 1012.86 107.884C1014.36 107.884 1015.57 107.494 1016.48 106.716C1017.41 105.922 1018.02 104.889 1018.32 103.616L1018.34 103.437H1023.02V103.594C1022.84 105.166 1022.3 106.589 1021.4 107.861C1020.51 109.119 1019.34 110.122 1017.87 110.871C1016.42 111.605 1014.74 111.972 1012.84 111.972ZM1036.67 111.972C1034.41 111.972 1032.43 111.478 1030.74 110.489C1029.07 109.486 1027.76 108.071 1026.83 106.244C1025.91 104.402 1025.44 102.216 1025.44 99.6855V99.6406C1025.44 97.125 1025.91 94.9538 1026.83 93.127C1027.78 91.3001 1029.09 89.8926 1030.76 88.9043C1032.46 87.916 1034.42 87.4219 1036.65 87.4219C1038.9 87.4219 1040.86 87.916 1042.53 88.9043C1044.23 89.8776 1045.54 91.2777 1046.46 93.1045C1047.41 94.9313 1047.88 97.11 1047.88 99.6406V99.6855C1047.88 102.231 1047.41 104.417 1046.46 106.244C1045.54 108.071 1044.23 109.486 1042.56 110.489C1040.88 111.478 1038.92 111.972 1036.67 111.972ZM1036.69 107.884C1037.95 107.884 1039.05 107.562 1039.97 106.918C1040.9 106.274 1041.62 105.346 1042.13 104.133C1042.64 102.905 1042.89 101.423 1042.89 99.6855V99.6406C1042.89 97.9186 1042.64 96.4512 1042.13 95.2383C1041.62 94.0104 1040.89 93.082 1039.95 92.4531C1039.01 91.8092 1037.91 91.4873 1036.65 91.4873C1035.41 91.4873 1034.31 91.8092 1033.37 92.4531C1032.44 93.097 1031.72 94.0254 1031.19 95.2383C1030.67 96.4512 1030.41 97.9186 1030.41 99.6406V99.6855C1030.41 101.423 1030.66 102.905 1031.17 104.133C1031.69 105.346 1032.43 106.274 1033.37 106.918C1034.31 107.562 1035.42 107.884 1036.69 107.884ZM1060.53 111.972C1058.55 111.972 1056.85 111.672 1055.43 111.073C1054.02 110.459 1052.91 109.613 1052.1 108.535C1051.29 107.442 1050.81 106.177 1050.64 104.739L1050.62 104.537H1055.43L1055.47 104.762C1055.71 105.84 1056.24 106.686 1057.07 107.3C1057.89 107.899 1059.04 108.198 1060.53 108.198C1061.51 108.198 1062.35 108.078 1063.04 107.839C1063.73 107.584 1064.26 107.225 1064.64 106.761C1065.01 106.297 1065.2 105.743 1065.2 105.099V105.076C1065.2 104.312 1064.95 103.699 1064.46 103.234C1063.96 102.77 1063.08 102.381 1061.81 102.066L1057.94 101.19C1056.44 100.846 1055.19 100.374 1054.19 99.7754C1053.2 99.1764 1052.46 98.4427 1051.97 97.5742C1051.47 96.7057 1051.23 95.7025 1051.23 94.5645V94.542C1051.23 93.1195 1051.61 91.8766 1052.37 90.8135C1053.14 89.7354 1054.21 88.9043 1055.58 88.3203C1056.96 87.7214 1058.56 87.4219 1060.37 87.4219C1062.22 87.4219 1063.83 87.7363 1065.17 88.3652C1066.52 88.9941 1067.57 89.8551 1068.32 90.9482C1069.08 92.0264 1069.5 93.2318 1069.58 94.5645V94.834H1065.02L1065 94.6768C1064.86 93.6436 1064.4 92.805 1063.6 92.1611C1062.81 91.5023 1061.73 91.1729 1060.37 91.1729C1059.5 91.1729 1058.74 91.3001 1058.1 91.5547C1057.46 91.8092 1056.96 92.1761 1056.62 92.6553C1056.27 93.1195 1056.1 93.666 1056.1 94.2949V94.3174C1056.1 94.7965 1056.21 95.2308 1056.44 95.6201C1056.68 96.0094 1057.06 96.3464 1057.58 96.6309C1058.11 96.9154 1058.78 97.1549 1059.6 97.3496L1063.47 98.248C1065.88 98.8021 1067.59 99.5882 1068.59 100.606C1069.61 101.61 1070.12 102.965 1070.12 104.672V104.694C1070.12 106.132 1069.7 107.397 1068.88 108.49C1068.06 109.583 1066.92 110.437 1065.47 111.051C1064.03 111.665 1062.38 111.972 1060.53 111.972ZM1076.63 119.384C1076.17 119.384 1075.7 119.361 1075.24 119.316C1074.77 119.271 1074.39 119.219 1074.09 119.159V115.363C1074.27 115.393 1074.5 115.423 1074.77 115.453C1075.05 115.498 1075.36 115.521 1075.69 115.521C1076.84 115.521 1077.75 115.326 1078.43 114.937C1079.12 114.547 1079.65 113.784 1080.04 112.646L1080.45 111.522L1071.85 87.8711H1077.12L1083.39 108.153L1082.54 107.098H1083.73L1082.87 108.153L1089.16 87.8711H1094.31L1085.5 112.578C1084.92 114.21 1084.23 115.528 1083.44 116.531C1082.66 117.535 1081.71 118.261 1080.61 118.71C1079.51 119.159 1078.19 119.384 1076.63 119.384ZM1105.94 111.972C1103.96 111.972 1102.27 111.672 1100.84 111.073C1099.44 110.459 1098.33 109.613 1097.52 108.535C1096.71 107.442 1096.22 106.177 1096.06 104.739L1096.04 104.537H1100.84L1100.89 104.762C1101.13 105.84 1101.66 106.686 1102.48 107.3C1103.31 107.899 1104.46 108.198 1105.94 108.198C1106.93 108.198 1107.77 108.078 1108.46 107.839C1109.15 107.584 1109.68 107.225 1110.05 106.761C1110.43 106.297 1110.61 105.743 1110.61 105.099V105.076C1110.61 104.312 1110.37 103.699 1109.87 103.234C1109.38 102.77 1108.49 102.381 1107.22 102.066L1103.36 101.19C1101.86 100.846 1100.61 100.374 1099.61 99.7754C1098.62 99.1764 1097.88 98.4427 1097.38 97.5742C1096.89 96.7057 1096.64 95.7025 1096.64 94.5645V94.542C1096.64 93.1195 1097.02 91.8766 1097.79 90.8135C1098.55 89.7354 1099.62 88.9043 1101 88.3203C1102.38 87.7214 1103.97 87.4219 1105.78 87.4219C1107.64 87.4219 1109.24 87.7363 1110.59 88.3652C1111.94 88.9941 1112.99 89.8551 1113.74 90.9482C1114.5 92.0264 1114.92 93.2318 1114.99 94.5645V94.834H1110.43L1110.41 94.6768C1110.28 93.6436 1109.81 92.805 1109.02 92.1611C1108.22 91.5023 1107.15 91.1729 1105.78 91.1729C1104.92 91.1729 1104.16 91.3001 1103.52 91.5547C1102.87 91.8092 1102.38 92.1761 1102.03 92.6553C1101.69 93.1195 1101.52 93.666 1101.52 94.2949V94.3174C1101.52 94.7965 1101.63 95.2308 1101.85 95.6201C1102.09 96.0094 1102.47 96.3464 1103 96.6309C1103.52 96.9154 1104.2 97.1549 1105.02 97.3496L1108.88 98.248C1111.29 98.8021 1113 99.5882 1114 100.606C1115.02 101.61 1115.53 102.965 1115.53 104.672V104.694C1115.53 106.132 1115.12 107.397 1114.3 108.49C1113.47 109.583 1112.34 110.437 1110.88 111.051C1109.45 111.665 1107.8 111.972 1105.94 111.972ZM1127.62 111.972C1125.28 111.972 1123.54 111.448 1122.38 110.399C1121.24 109.336 1120.68 107.622 1120.68 105.256V91.7344H1117.28V87.8711H1120.68V81.7168H1125.66V87.8711H1130.09V91.7344H1125.66V104.986C1125.66 106.184 1125.92 107.008 1126.45 107.457C1126.97 107.891 1127.75 108.108 1128.78 108.108C1129.04 108.108 1129.27 108.101 1129.48 108.086C1129.71 108.056 1129.91 108.034 1130.09 108.019V111.77C1129.8 111.814 1129.44 111.859 1129.01 111.904C1128.57 111.949 1128.11 111.972 1127.62 111.972ZM1143.63 111.972C1141.32 111.972 1139.33 111.478 1137.66 110.489C1135.99 109.486 1134.71 108.071 1133.82 106.244C1132.93 104.402 1132.49 102.239 1132.49 99.7529V99.7305C1132.49 97.2747 1132.94 95.126 1133.84 93.2842C1134.74 91.4274 1136 89.9899 1137.63 88.9717C1139.27 87.9385 1141.18 87.4219 1143.38 87.4219C1145.6 87.4219 1147.5 87.916 1149.09 88.9043C1150.69 89.8776 1151.93 91.2627 1152.79 93.0596C1153.66 94.8415 1154.1 96.9154 1154.1 99.2812V100.921H1134.89V97.4844H1151.74L1149.34 100.696V98.8096C1149.34 97.1475 1149.08 95.7699 1148.57 94.6768C1148.08 93.5687 1147.38 92.7451 1146.48 92.2061C1145.6 91.667 1144.57 91.3975 1143.41 91.3975C1142.25 91.3975 1141.22 91.682 1140.31 92.251C1139.39 92.82 1138.67 93.6585 1138.15 94.7666C1137.63 95.8597 1137.36 97.2074 1137.36 98.8096V100.696C1137.36 102.224 1137.62 103.534 1138.13 104.627C1138.65 105.705 1139.39 106.536 1140.35 107.12C1141.31 107.689 1142.44 107.974 1143.74 107.974C1144.7 107.974 1145.55 107.831 1146.28 107.547C1147.01 107.247 1147.62 106.858 1148.1 106.379C1148.59 105.885 1148.94 105.338 1149.13 104.739L1149.2 104.56H1153.83L1153.78 104.807C1153.59 105.735 1153.22 106.626 1152.68 107.479C1152.14 108.333 1151.44 109.104 1150.57 109.793C1149.72 110.467 1148.71 110.998 1147.54 111.388C1146.37 111.777 1145.07 111.972 1143.63 111.972ZM1157.83 111.5V87.8711H1162.72V91.5322H1162.81C1163.32 90.2894 1164.15 89.2936 1165.31 88.5449C1166.46 87.7962 1167.81 87.4219 1169.35 87.4219C1170.43 87.4219 1171.4 87.6016 1172.27 87.9609C1173.15 88.3203 1173.91 88.8519 1174.54 89.5557C1175.17 90.2445 1175.63 91.083 1175.93 92.0713H1176.04C1176.45 91.113 1177.01 90.2894 1177.73 89.6006C1178.46 88.8968 1179.31 88.3577 1180.26 87.9834C1181.24 87.609 1182.29 87.4219 1183.41 87.4219C1184.97 87.4219 1186.32 87.7513 1187.47 88.4102C1188.63 89.054 1189.53 89.96 1190.17 91.1279C1190.81 92.2959 1191.14 93.666 1191.14 95.2383V111.5H1186.24V96.4287C1186.24 95.3955 1186.06 94.5195 1185.7 93.8008C1185.36 93.082 1184.85 92.5355 1184.17 92.1611C1183.51 91.7868 1182.7 91.5996 1181.72 91.5996C1180.77 91.5996 1179.92 91.8167 1179.19 92.251C1178.47 92.6852 1177.9 93.2917 1177.48 94.0703C1177.08 94.849 1176.87 95.7324 1176.87 96.7207V111.5H1172.09V96.0693C1172.09 95.1559 1171.9 94.3698 1171.53 93.7109C1171.17 93.0371 1170.66 92.5205 1170 92.1611C1169.34 91.7868 1168.55 91.5996 1167.62 91.5996C1166.68 91.5996 1165.83 91.8317 1165.08 92.2959C1164.35 92.7451 1163.77 93.3665 1163.35 94.1602C1162.93 94.9538 1162.72 95.8672 1162.72 96.9004V111.5H1157.83Z" fill="white"/>
<path d="M1653.5 230V205C1653.5 196.716 1646.78 190 1638.5 190H195C186.716 190 180 196.716 180 205V230" stroke="#272727" stroke-width="2"/>
<path d="M1299 184.226L1293.23 190L1299 195.774L1304.77 190L1299 184.226ZM1300 230V190H1298V230H1300Z" fill="#272727"/>
<path d="M903.5 184.226L897.726 190L903.5 195.774L909.274 190L903.5 184.226ZM904.5 230V190H902.5V230H904.5Z" fill="url(#paint1_linear_35_401)"/>
<path d="M300 821H960" stroke="url(#paint2_linear_35_401)" stroke-width="2"/>
<path d="M1130 638V776" stroke="url(#paint3_linear_35_401)" stroke-width="2"/>
<defs>
<filter id="filter0_b_35_401" x="-200" y="-200" width="2220" height="1326" filterUnits="userSpaceOnUse" color-interpolation-filters="sRGB">
<feFlood flood-opacity="0" result="BackgroundImageFix"/>
<feGaussianBlur in="BackgroundImageFix" stdDeviation="100"/>
<feComposite in2="SourceAlpha" operator="in" result="effect1_backgroundBlur_35_401"/>
<feBlend mode="normal" in="SourceGraphic" in2="effect1_backgroundBlur_35_401" result="shape"/>
</filter>
<filter id="filter1_b_35_401" x="40" y="210" width="280" height="130" filterUnits="userSpaceOnUse" color-interpolation-filters="sRGB">
<feFlood flood-opacity="0" result="BackgroundImageFix"/>
<feGaussianBlur in="BackgroundImageFix" stdDeviation="10"/>
<feComposite in2="SourceAlpha" operator="in" result="effect1_backgroundBlur_35_401"/>
<feBlend mode="normal" in="SourceGraphic" in2="effect1_backgroundBlur_35_401" result="shape"/>
</filter>
<filter id="filter2_b_35_401" x="480" y="440" width="380" height="218" filterUnits="userSpaceOnUse" color-interpolation-filters="sRGB">
<feFlood flood-opacity="0" result="BackgroundImageFix"/>
<feGaussianBlur in="BackgroundImageFix" stdDeviation="10"/>
<feComposite in2="SourceAlpha" operator="in" result="effect1_backgroundBlur_35_401"/>
<feBlend mode="normal" in="SourceGraphic" in2="effect1_backgroundBlur_35_401" result="shape"/>
</filter>
<filter id="filter3_b_35_401" x="940" y="440" width="380" height="218" filterUnits="userSpaceOnUse" color-interpolation-filters="sRGB">
<feFlood flood-opacity="0" result="BackgroundImageFix"/>
<feGaussianBlur in="BackgroundImageFix" stdDeviation="10"/>
<feComposite in2="SourceAlpha" operator="in" result="effect1_backgroundBlur_35_401"/>
<feBlend mode="normal" in="SourceGraphic" in2="effect1_backgroundBlur_35_401" result="shape"/>
</filter>
<filter id="filter4_b_35_401" x="1400" y="440" width="380" height="218" filterUnits="userSpaceOnUse" color-interpolation-filters="sRGB">
<feFlood flood-opacity="0" result="BackgroundImageFix"/>
<feGaussianBlur in="BackgroundImageFix" stdDeviation="10"/>
<feComposite in2="SourceAlpha" operator="in" result="effect1_backgroundBlur_35_401"/>
<feBlend mode="normal" in="SourceGraphic" in2="effect1_backgroundBlur_35_401" result="shape"/>
</filter>
<filter id="filter5_b_35_401" x="40" y="756" width="280" height="130" filterUnits="userSpaceOnUse" color-interpolation-filters="sRGB">
<feFlood flood-opacity="0" result="BackgroundImageFix"/>
<feGaussianBlur in="BackgroundImageFix" stdDeviation="10"/>
<feComposite in2="SourceAlpha" operator="in" result="effect1_backgroundBlur_35_401"/>
<feBlend mode="normal" in="SourceGraphic" in2="effect1_backgroundBlur_35_401" result="shape"/>
</filter>
<filter id="filter6_b_35_401" x="729" y="210" width="343" height="130" filterUnits="userSpaceOnUse" color-interpolation-filters="sRGB">
<feFlood flood-opacity="0" result="BackgroundImageFix"/>
<feGaussianBlur in="BackgroundImageFix" stdDeviation="10"/>
<feComposite in2="SourceAlpha" operator="in" result="effect1_backgroundBlur_35_401"/>
<feBlend mode="normal" in="SourceGraphic" in2="effect1_backgroundBlur_35_401" result="shape"/>
</filter>
<filter id="filter7_b_35_401" x="1157" y="210" width="284" height="130" filterUnits="userSpaceOnUse" color-interpolation-filters="sRGB">
<feFlood flood-opacity="0" result="BackgroundImageFix"/>
<feGaussianBlur in="BackgroundImageFix" stdDeviation="10"/>
<feComposite in2="SourceAlpha" operator="in" result="effect1_backgroundBlur_35_401"/>
<feBlend mode="normal" in="SourceGraphic" in2="effect1_backgroundBlur_35_401" result="shape"/>
</filter>
<filter id="filter8_b_35_401" x="1526" y="210" width="254" height="130" filterUnits="userSpaceOnUse" color-interpolation-filters="sRGB">
<feFlood flood-opacity="0" result="BackgroundImageFix"/>
<feGaussianBlur in="BackgroundImageFix" stdDeviation="10"/>
<feComposite in2="SourceAlpha" operator="in" result="effect1_backgroundBlur_35_401"/>
<feBlend mode="normal" in="SourceGraphic" in2="effect1_backgroundBlur_35_401" result="shape"/>
</filter>
<filter id="filter9_b_35_401" x="940" y="756" width="380" height="130" filterUnits="userSpaceOnUse" color-interpolation-filters="sRGB">
<feFlood flood-opacity="0" result="BackgroundImageFix"/>
<feGaussianBlur in="BackgroundImageFix" stdDeviation="10"/>
<feComposite in2="SourceAlpha" operator="in" result="effect1_backgroundBlur_35_401"/>
<feBlend mode="normal" in="SourceGraphic" in2="effect1_backgroundBlur_35_401" result="shape"/>
</filter>
<linearGradient id="paint0_linear_35_401" x1="900.5" y1="320" x2="900.5" y2="548" gradientUnits="userSpaceOnUse">
<stop stop-color="#DCB976"/>
<stop offset="1" stop-color="#272727"/>
</linearGradient>
<linearGradient id="paint1_linear_35_401" x1="904" y1="191" x2="904" y2="230" gradientUnits="userSpaceOnUse">
<stop stop-color="#272727"/>
<stop offset="1" stop-color="#DCB976"/>
</linearGradient>
<linearGradient id="paint2_linear_35_401" x1="960" y1="820.999" x2="300" y2="821" gradientUnits="userSpaceOnUse">
<stop stop-color="#DCB976"/>
<stop offset="1" stop-color="#272727"/>
</linearGradient>
<linearGradient id="paint3_linear_35_401" x1="1130.5" y1="638" x2="1130.5" y2="776" gradientUnits="userSpaceOnUse">
<stop stop-color="#272727"/>
<stop offset="1" stop-color="#DCB976"/>
</linearGradient>
</defs>
</svg>
